M48
;DRILL file {KiCad (2015-05-09 BZR 5648)-product} date fre 07 aug 2015 21:35:48 CEST
;FORMAT={-:-/ absolute / inch / decimal}
FMAT,2
INCH,TZ
T1C0.016
T2C0.018
T3C0.026
T4C0.028
T5C0.039
T6C0.040
T7C0.138
%
G90
G05
M72
T1
X4.6156Y-3.7202
X4.8463Y-3.703
X4.8804Y-4.0286
X4.9091Y-4.0165
X5.1215Y-3.4705
X5.1368Y-3.8693
X5.3207Y-3.6957
X5.4115Y-3.8693
X5.4698Y-3.8483
X5.4744Y-3.6518
X5.4888Y-3.4622
X5.5102Y-3.9146
X5.524Y-4.8454
X5.5335Y-3.8569
X5.5594Y-3.793
T3
X5.4968Y-4.9286
X5.6542Y-4.9286
T4
X4.93Y-4.91
X4.93Y-4.96
X4.98Y-4.91
X4.98Y-4.96
X5.03Y-4.91
X5.03Y-4.96
X5.08Y-4.91
X5.08Y-4.96
X5.13Y-4.91
X5.13Y-4.96
X5.383Y-3.603
X5.383Y-3.653
X5.383Y-3.703
X5.383Y-3.753
X5.383Y-3.803
X5.433Y-3.603
X5.433Y-3.653
X5.433Y-3.703
X5.433Y-3.753
X5.433Y-3.803
X5.74Y-3.603
X5.74Y-3.653
X5.74Y-3.703
X5.74Y-3.753
X5.74Y-3.803
X5.79Y-3.603
X5.79Y-3.653
X5.79Y-3.703
X5.79Y-3.753
X5.79Y-3.803
T5
X4.428Y-3.603
X4.428Y-3.703
X4.428Y-3.803
X4.528Y-3.603
X4.528Y-3.703
X4.528Y-3.803
X4.955Y-3.503
X4.955Y-3.603
X4.955Y-3.703
X4.955Y-3.803
X4.955Y-3.903
X5.055Y-3.503
X5.055Y-3.603
X5.055Y-3.703
X5.055Y-3.803
X5.055Y-3.903
T6
X5.339Y-4.3005
X5.6298Y-4.0906
X5.6298Y-4.1906
X5.7298Y-4.0906
X5.7298Y-4.1906
X5.8298Y-4.0906
X5.8298Y-4.1906
X5.9654Y-4.5953
X5.9654Y-4.6953
T7
X4.24Y-4.9315
X4.242Y-3.2575
X5.913Y-3.258
X5.918Y-4.928
T2
X5.4348Y-4.8606G85X5.4348Y-4.8921
G05
X5.4348Y-4.9965G85X5.4348Y-5.028
G05
X5.7162Y-4.8606G85X5.7162Y-4.8921
G05
X5.7162Y-4.9965G85X5.7162Y-5.028
G05
T0
M30
