G04 #@! TF.FileFunction,Soldermask,Bot*
%FSLAX46Y46*%
G04 Gerber Fmt 4.6, Leading zero omitted, Abs format (unit mm)*
G04 Created by KiCad (PCBNEW (2015-05-09 BZR 5648)-product) date tor 06 aug 2015 20:12:04 CEST*
%MOMM*%
G01*
G04 APERTURE LIST*
%ADD10C,0.100000*%
%ADD11R,2.000000X1.500000*%
%ADD12O,2.000000X1.500000*%
%ADD13O,1.500000X2.000000*%
%ADD14R,1.500000X2.000000*%
%ADD15C,1.000000*%
%ADD16O,1.050000X1.850000*%
%ADD17C,0.650000*%
%ADD18R,1.727200X1.727200*%
%ADD19O,1.727200X1.727200*%
%ADD20R,2.032000X2.032000*%
%ADD21O,2.032000X2.032000*%
%ADD22R,2.235200X2.235200*%
G04 APERTURE END LIST*
D10*
D11*
X112365600Y-91186000D03*
D12*
X109325600Y-91186000D03*
X112365600Y-88646000D03*
X109325600Y-88646000D03*
X112365600Y-86106000D03*
X109325600Y-86106000D03*
D13*
X133756400Y-104288400D03*
X133756400Y-101248400D03*
X131216400Y-101248400D03*
X131216400Y-104288400D03*
D14*
X123596400Y-104288400D03*
D13*
X123596400Y-101248400D03*
X126136400Y-104288400D03*
X126136400Y-101248400D03*
X128676400Y-104288400D03*
X128676400Y-101248400D03*
D11*
X148840000Y-91186000D03*
D12*
X145800000Y-91186000D03*
X148840000Y-88646000D03*
X145800000Y-88646000D03*
X148840000Y-86106000D03*
X145800000Y-86106000D03*
D15*
X125222000Y-124714000D03*
X125222000Y-125984000D03*
X126492000Y-124714000D03*
X126492000Y-125984000D03*
X127762000Y-124714000D03*
X127762000Y-125984000D03*
X129032000Y-124714000D03*
X129032000Y-125984000D03*
X130302000Y-124714000D03*
X130302000Y-125984000D03*
X109016800Y-102412800D03*
X109016800Y-103682800D03*
X110286800Y-102412800D03*
X110286800Y-103682800D03*
X111556800Y-102412800D03*
X111556800Y-103682800D03*
X112826800Y-102412800D03*
X112826800Y-103682800D03*
X114096800Y-102412800D03*
X114096800Y-103682800D03*
X125222000Y-90932000D03*
X125222000Y-92202000D03*
X126492000Y-90932000D03*
X126492000Y-92202000D03*
X127762000Y-90932000D03*
X127762000Y-92202000D03*
X129032000Y-90932000D03*
X129032000Y-92202000D03*
X130302000Y-90932000D03*
X130302000Y-92202000D03*
D16*
X142119400Y-127221600D03*
X149269400Y-127221600D03*
X142119400Y-123771600D03*
X149269400Y-123771600D03*
D17*
X143694400Y-125096600D03*
X147694400Y-125096600D03*
D18*
X144678400Y-108864400D03*
D19*
X144678400Y-106324400D03*
X147218400Y-108864400D03*
X147218400Y-106324400D03*
X149758400Y-108864400D03*
X149758400Y-106324400D03*
D20*
X151638000Y-118110000D03*
D21*
X151638000Y-115570000D03*
D22*
X140055600Y-82245200D03*
M02*
