G04 #@! TF.FileFunction,Copper,L2,Bot,Signal*
%FSLAX46Y46*%
G04 Gerber Fmt 4.6, Leading zero omitted, Abs format (unit mm)*
G04 Created by KiCad (PCBNEW (2015-05-09 BZR 5648)-product) date tor 06 aug 2015 20:12:04 CEST*
%MOMM*%
G01*
G04 APERTURE LIST*
%ADD10C,0.100000*%
%ADD11R,2.000000X1.500000*%
%ADD12O,2.000000X1.500000*%
%ADD13O,1.500000X2.000000*%
%ADD14R,1.500000X2.000000*%
%ADD15C,1.000000*%
%ADD16O,1.050000X1.850000*%
%ADD17R,1.727200X1.727200*%
%ADD18O,1.727200X1.727200*%
%ADD19R,2.032000X2.032000*%
%ADD20O,2.032000X2.032000*%
%ADD21R,2.235200X2.235200*%
%ADD22C,0.600000*%
%ADD23C,0.254000*%
%ADD24C,0.508000*%
G04 APERTURE END LIST*
D10*
D11*
X112365600Y-91186000D03*
D12*
X109325600Y-91186000D03*
X112365600Y-88646000D03*
X109325600Y-88646000D03*
X112365600Y-86106000D03*
X109325600Y-86106000D03*
D13*
X133756400Y-104288400D03*
X133756400Y-101248400D03*
X131216400Y-101248400D03*
X131216400Y-104288400D03*
D14*
X123596400Y-104288400D03*
D13*
X123596400Y-101248400D03*
X126136400Y-104288400D03*
X126136400Y-101248400D03*
X128676400Y-104288400D03*
X128676400Y-101248400D03*
D11*
X148840000Y-91186000D03*
D12*
X145800000Y-91186000D03*
X148840000Y-88646000D03*
X145800000Y-88646000D03*
X148840000Y-86106000D03*
X145800000Y-86106000D03*
D15*
X125222000Y-124714000D03*
X125222000Y-125984000D03*
X126492000Y-124714000D03*
X126492000Y-125984000D03*
X127762000Y-124714000D03*
X127762000Y-125984000D03*
X129032000Y-124714000D03*
X129032000Y-125984000D03*
X130302000Y-124714000D03*
X130302000Y-125984000D03*
X109016800Y-102412800D03*
X109016800Y-103682800D03*
X110286800Y-102412800D03*
X110286800Y-103682800D03*
X111556800Y-102412800D03*
X111556800Y-103682800D03*
X112826800Y-102412800D03*
X112826800Y-103682800D03*
X114096800Y-102412800D03*
X114096800Y-103682800D03*
X125222000Y-90932000D03*
X125222000Y-92202000D03*
X126492000Y-90932000D03*
X126492000Y-92202000D03*
X127762000Y-90932000D03*
X127762000Y-92202000D03*
X129032000Y-90932000D03*
X129032000Y-92202000D03*
X130302000Y-90932000D03*
X130302000Y-92202000D03*
D16*
X142119400Y-127221600D03*
X149269400Y-127221600D03*
X142119400Y-123771600D03*
X149269400Y-123771600D03*
D17*
X144678400Y-108864400D03*
D18*
X144678400Y-106324400D03*
X147218400Y-108864400D03*
X147218400Y-106324400D03*
X149758400Y-108864400D03*
X149758400Y-106324400D03*
D19*
X151638000Y-118110000D03*
D20*
X151638000Y-115570000D03*
D21*
X140055600Y-82245200D03*
D22*
X133306951Y-93657979D03*
X113334800Y-93776800D03*
X126492000Y-99321092D03*
X127390609Y-90003522D03*
X119777792Y-101534683D03*
X125328770Y-98803626D03*
X132136041Y-92848961D03*
X128778000Y-93218000D03*
X132278811Y-89513989D03*
X121686618Y-99191782D03*
X115011200Y-103124000D03*
X128676400Y-106019600D03*
X121615200Y-105918000D03*
X134383410Y-105968800D03*
X131318000Y-105918000D03*
X131470400Y-92405200D03*
X130454400Y-93370400D03*
D23*
X147262990Y-90108990D02*
X136763810Y-90108990D01*
X148340000Y-91186000D02*
X147262990Y-90108990D01*
X148590000Y-91186000D02*
X148340000Y-91186000D01*
X133306951Y-93565849D02*
X133306951Y-93657979D01*
X136763810Y-90108990D02*
X133306951Y-93565849D01*
X113334800Y-93776800D02*
X117158362Y-93776800D01*
X126492000Y-92202000D02*
X126492000Y-99321092D01*
X117158362Y-93776800D02*
X121811354Y-98429792D01*
X122730695Y-99349133D02*
X122732033Y-99349133D01*
X122174000Y-99905828D02*
X122730695Y-99349133D01*
X122174000Y-105359200D02*
X122174000Y-99905828D01*
X122519390Y-105704590D02*
X122174000Y-105359200D01*
X122519390Y-124505352D02*
X122519390Y-105704590D01*
X122732033Y-99349133D02*
X123073747Y-99007419D01*
X125664999Y-126811001D02*
X124825039Y-126811001D01*
X124825039Y-126811001D02*
X122519390Y-124505352D01*
X126492000Y-125984000D02*
X125664999Y-126811001D01*
X126136400Y-103788400D02*
X126136400Y-104038400D01*
X124917200Y-102569200D02*
X126136400Y-103788400D01*
X124917200Y-100888800D02*
X124917200Y-102569200D01*
X124917200Y-100888800D02*
X124917200Y-100431600D01*
X122915392Y-98429792D02*
X122047276Y-98429792D01*
X122047276Y-98429792D02*
X121811354Y-98429792D01*
X122496120Y-98429792D02*
X122047276Y-98429792D01*
X123074413Y-99007419D02*
X123283716Y-98798116D01*
X123073747Y-99007419D02*
X123074413Y-99007419D01*
X123283716Y-98798116D02*
X122915392Y-98429792D01*
X124917200Y-100431600D02*
X123283716Y-98798116D01*
D24*
X149758400Y-106324400D02*
X147218400Y-106324400D01*
X144678400Y-106324400D02*
X147218400Y-106324400D01*
X110779601Y-92390001D02*
X109575600Y-91186000D01*
X117278001Y-92390001D02*
X110779601Y-92390001D01*
X108062799Y-93956801D02*
X109575600Y-92444000D01*
X109575600Y-92444000D02*
X109575600Y-91186000D01*
X108062799Y-103435905D02*
X108062799Y-93956801D01*
X108309694Y-103682800D02*
X108062799Y-103435905D01*
X109016800Y-103682800D02*
X108309694Y-103682800D01*
X126492000Y-90224894D02*
X126492000Y-90932000D01*
X126245105Y-89977999D02*
X126492000Y-90224894D01*
X119690003Y-89977999D02*
X126245105Y-89977999D01*
X117278001Y-92390001D02*
X119690003Y-89977999D01*
X146050000Y-105156000D02*
X147218400Y-106324400D01*
X146050000Y-91186000D02*
X146050000Y-105156000D01*
X126492000Y-106688854D02*
X126492000Y-124714000D01*
X127394400Y-103006400D02*
X127394400Y-105786454D01*
X127394400Y-105786454D02*
X126492000Y-106688854D01*
X126136400Y-101748400D02*
X127394400Y-103006400D01*
X126136400Y-101498400D02*
X126136400Y-101748400D01*
X126136400Y-101498400D02*
X126136400Y-100677601D01*
X126136400Y-100677601D02*
X123138741Y-97679942D01*
X122567942Y-97679942D02*
X117278001Y-92390001D01*
X123138741Y-97679942D02*
X122567942Y-97679942D01*
D23*
X112115600Y-88646000D02*
X126033087Y-88646000D01*
X126033087Y-88646000D02*
X127390609Y-90003522D01*
X110286800Y-102412800D02*
X111187363Y-101512237D01*
X111187363Y-101512237D02*
X119755346Y-101512237D01*
X119755346Y-101512237D02*
X119777792Y-101534683D01*
X123596400Y-124358400D02*
X123596400Y-104038400D01*
X125222000Y-125984000D02*
X123596400Y-124358400D01*
X125222000Y-92202000D02*
X125222000Y-98696856D01*
X125222000Y-98696856D02*
X125328770Y-98803626D01*
X132679390Y-94579390D02*
X132104542Y-94004542D01*
X132104542Y-94004542D02*
X130801999Y-92701999D01*
X109575600Y-88646000D02*
X109825600Y-88646000D01*
X109825600Y-88646000D02*
X110902610Y-87568990D01*
X110902610Y-87568990D02*
X129447086Y-87568990D01*
X129447086Y-87568990D02*
X132763042Y-90884946D01*
X132763042Y-90884946D02*
X132763042Y-93346042D01*
X132763042Y-93346042D02*
X132104542Y-94004542D01*
X133756400Y-104038400D02*
X133756400Y-103271522D01*
X133756400Y-103271522D02*
X132679390Y-102194512D01*
X132679390Y-102194512D02*
X132679390Y-94579390D01*
X130801999Y-92701999D02*
X130302000Y-92202000D01*
X133756400Y-122529600D02*
X133756400Y-104038400D01*
X130302000Y-125984000D02*
X133756400Y-122529600D01*
X112115600Y-86106000D02*
X113369600Y-86106000D01*
X113369600Y-86106000D02*
X114446610Y-85028990D01*
X147262990Y-85028990D02*
X148340000Y-86106000D01*
X148340000Y-86106000D02*
X148590000Y-86106000D01*
X114096800Y-102412800D02*
X119786400Y-102412800D01*
X132136041Y-92848961D02*
X132136041Y-90900012D01*
X132136041Y-90900012D02*
X130887018Y-89650989D01*
X130887018Y-89650989D02*
X129043011Y-89650989D01*
X129043011Y-89650989D02*
X128261999Y-90432001D01*
X128261999Y-90432001D02*
X127762000Y-90932000D01*
X128676400Y-101498400D02*
X128676400Y-93319600D01*
X128676400Y-93319600D02*
X128778000Y-93218000D01*
X127762000Y-124714000D02*
X127762000Y-109016800D01*
X128676400Y-101748400D02*
X128676400Y-101498400D01*
X129753410Y-107025390D02*
X129753410Y-102825410D01*
X129753410Y-102825410D02*
X128676400Y-101748400D01*
X127762000Y-109016800D02*
X129753410Y-107025390D01*
X132905074Y-88887726D02*
X132278811Y-89513989D01*
X132905074Y-85028990D02*
X132905074Y-88887726D01*
X114446610Y-85028990D02*
X132905074Y-85028990D01*
X132905074Y-85028990D02*
X147262990Y-85028990D01*
X119827637Y-102412800D02*
X120954800Y-101285637D01*
X119786400Y-102412800D02*
X119827637Y-102412800D01*
X120954800Y-99923600D02*
X121686618Y-99191782D01*
X120954800Y-101285637D02*
X120954800Y-99923600D01*
X115011200Y-103124000D02*
X118821200Y-103124000D01*
X118821200Y-103124000D02*
X121615200Y-105918000D01*
X128676400Y-104038400D02*
X128676400Y-106019600D01*
X127262001Y-126483999D02*
X127762000Y-125984000D01*
X124636982Y-127265011D02*
X126480989Y-127265011D01*
X126480989Y-127265011D02*
X127262001Y-126483999D01*
X122065380Y-124693409D02*
X124636982Y-127265011D01*
X122065380Y-106368180D02*
X122065380Y-124693409D01*
X121615200Y-105918000D02*
X122065380Y-106368180D01*
X127262001Y-99372588D02*
X127262001Y-92701999D01*
X127599390Y-99709977D02*
X127262001Y-99372588D01*
X127599390Y-102194512D02*
X127599390Y-99709977D01*
X127262001Y-92701999D02*
X127762000Y-92202000D01*
X128676400Y-103271522D02*
X127599390Y-102194512D01*
X128676400Y-104038400D02*
X128676400Y-103271522D01*
X131216400Y-104038400D02*
X131216400Y-103271522D01*
X131216400Y-103271522D02*
X129753410Y-101808532D01*
X129753410Y-101808532D02*
X129753410Y-92923410D01*
X129753410Y-92923410D02*
X129531999Y-92701999D01*
X129531999Y-92701999D02*
X129032000Y-92202000D01*
X134383410Y-123126552D02*
X134383410Y-105968800D01*
X130698961Y-126811001D02*
X134383410Y-123126552D01*
X129859001Y-126811001D02*
X130698961Y-126811001D01*
X129032000Y-125984000D02*
X129859001Y-126811001D01*
X131318000Y-104140000D02*
X131216400Y-104038400D01*
X131318000Y-105918000D02*
X131318000Y-104140000D01*
X131470400Y-92405200D02*
X131470400Y-90876438D01*
X129531999Y-90432001D02*
X129032000Y-90932000D01*
X131470400Y-90876438D02*
X130698961Y-90104999D01*
X130698961Y-90104999D02*
X129859001Y-90104999D01*
X129859001Y-90104999D02*
X129531999Y-90432001D01*
X131216400Y-101498400D02*
X131216400Y-94132400D01*
X131216400Y-94132400D02*
X130454400Y-93370400D01*
X129032000Y-124714000D02*
X129032000Y-112979200D01*
X131216400Y-101748400D02*
X131216400Y-101498400D01*
X132679390Y-103211390D02*
X131216400Y-101748400D01*
X132679390Y-109331810D02*
X132679390Y-103211390D01*
X129032000Y-112979200D02*
X132679390Y-109331810D01*
M02*
