G04 #@! TF.FileFunction,Legend,Top*
%FSLAX46Y46*%
G04 Gerber Fmt 4.6, Leading zero omitted, Abs format (unit mm)*
G04 Created by KiCad (PCBNEW (2015-05-09 BZR 5648)-product) date fre 07 aug 2015 21:35:44 CEST*
%MOMM*%
G01*
G04 APERTURE LIST*
%ADD10C,0.100000*%
%ADD11C,0.250000*%
%ADD12C,0.300000*%
%ADD13C,0.150000*%
%ADD14C,0.304800*%
%ADD15C,0.299720*%
G04 APERTURE END LIST*
D10*
D11*
X122487655Y-128148341D02*
X121916226Y-128148341D01*
X122201940Y-128148341D02*
X122201940Y-127148341D01*
X122106702Y-127291198D01*
X122011464Y-127386436D01*
X121916226Y-127434055D01*
X119421875Y-97094301D02*
X118850446Y-97094301D01*
X119136160Y-97094301D02*
X119136160Y-96094301D01*
X119040922Y-96237158D01*
X118945684Y-96332396D01*
X118850446Y-96380015D01*
X132861015Y-99547941D02*
X132289586Y-99547941D01*
X132575300Y-99547941D02*
X132575300Y-98547941D01*
X132480062Y-98690798D01*
X132384824Y-98786036D01*
X132289586Y-98833655D01*
X140854395Y-97160341D02*
X140282966Y-97160341D01*
X140568680Y-97160341D02*
X140568680Y-96160341D01*
X140473442Y-96303198D01*
X140378204Y-96398436D01*
X140282966Y-96446055D01*
X149937435Y-96941901D02*
X149366006Y-96941901D01*
X149651720Y-96941901D02*
X149651720Y-95941901D01*
X149556482Y-96084758D01*
X149461244Y-96179996D01*
X149366006Y-96227615D01*
X127034895Y-105852681D02*
X127034895Y-104852681D01*
X127415848Y-104852681D01*
X127511086Y-104900300D01*
X127558705Y-104947919D01*
X127606324Y-105043157D01*
X127606324Y-105186014D01*
X127558705Y-105281252D01*
X127511086Y-105328871D01*
X127415848Y-105376490D01*
X127034895Y-105376490D01*
X128034895Y-105852681D02*
X128034895Y-104852681D01*
X128272990Y-104852681D01*
X128415848Y-104900300D01*
X128511086Y-104995538D01*
X128558705Y-105090776D01*
X128606324Y-105281252D01*
X128606324Y-105424110D01*
X128558705Y-105614586D01*
X128511086Y-105709824D01*
X128415848Y-105805062D01*
X128272990Y-105852681D01*
X128034895Y-105852681D01*
X129034895Y-105852681D02*
X129034895Y-104852681D01*
X127034895Y-107502681D02*
X127034895Y-106502681D01*
X127415848Y-106502681D01*
X127511086Y-106550300D01*
X127558705Y-106597919D01*
X127606324Y-106693157D01*
X127606324Y-106836014D01*
X127558705Y-106931252D01*
X127511086Y-106978871D01*
X127415848Y-107026490D01*
X127034895Y-107026490D01*
X128034895Y-107502681D02*
X128034895Y-106502681D01*
X128272990Y-106502681D01*
X128415848Y-106550300D01*
X128511086Y-106645538D01*
X128558705Y-106740776D01*
X128606324Y-106931252D01*
X128606324Y-107074110D01*
X128558705Y-107264586D01*
X128511086Y-107359824D01*
X128415848Y-107455062D01*
X128272990Y-107502681D01*
X128034895Y-107502681D01*
X129034895Y-107502681D02*
X129034895Y-106502681D01*
X129272990Y-107597919D02*
X130034895Y-107597919D01*
X130272990Y-107502681D02*
X130272990Y-106502681D01*
X130511085Y-106502681D01*
X130653943Y-106550300D01*
X130749181Y-106645538D01*
X130796800Y-106740776D01*
X130844419Y-106931252D01*
X130844419Y-107074110D01*
X130796800Y-107264586D01*
X130749181Y-107359824D01*
X130653943Y-107455062D01*
X130511085Y-107502681D01*
X130272990Y-107502681D01*
X126892038Y-108152681D02*
X127225371Y-109152681D01*
X127558705Y-108152681D01*
X128463467Y-109057443D02*
X128415848Y-109105062D01*
X128272991Y-109152681D01*
X128177753Y-109152681D01*
X128034895Y-109105062D01*
X127939657Y-109009824D01*
X127892038Y-108914586D01*
X127844419Y-108724110D01*
X127844419Y-108581252D01*
X127892038Y-108390776D01*
X127939657Y-108295538D01*
X128034895Y-108200300D01*
X128177753Y-108152681D01*
X128272991Y-108152681D01*
X128415848Y-108200300D01*
X128463467Y-108247919D01*
X129463467Y-109057443D02*
X129415848Y-109105062D01*
X129272991Y-109152681D01*
X129177753Y-109152681D01*
X129034895Y-109105062D01*
X128939657Y-109009824D01*
X128892038Y-108914586D01*
X128844419Y-108724110D01*
X128844419Y-108581252D01*
X128892038Y-108390776D01*
X128939657Y-108295538D01*
X129034895Y-108200300D01*
X129177753Y-108152681D01*
X129272991Y-108152681D01*
X129415848Y-108200300D01*
X129463467Y-108247919D01*
X127034895Y-110136014D02*
X127034895Y-110802681D01*
X127034895Y-110231252D02*
X127082514Y-110183633D01*
X127177752Y-110136014D01*
X127320610Y-110136014D01*
X127415848Y-110183633D01*
X127463467Y-110278871D01*
X127463467Y-110802681D01*
X128368229Y-110755062D02*
X128272991Y-110802681D01*
X128082514Y-110802681D01*
X127987276Y-110755062D01*
X127939657Y-110707443D01*
X127892038Y-110612205D01*
X127892038Y-110326490D01*
X127939657Y-110231252D01*
X127987276Y-110183633D01*
X128082514Y-110136014D01*
X128272991Y-110136014D01*
X128368229Y-110183633D01*
X127034895Y-111786014D02*
X127034895Y-112452681D01*
X127034895Y-111881252D02*
X127082514Y-111833633D01*
X127177752Y-111786014D01*
X127320610Y-111786014D01*
X127415848Y-111833633D01*
X127463467Y-111928871D01*
X127463467Y-112452681D01*
X128368229Y-112405062D02*
X128272991Y-112452681D01*
X128082514Y-112452681D01*
X127987276Y-112405062D01*
X127939657Y-112357443D01*
X127892038Y-112262205D01*
X127892038Y-111976490D01*
X127939657Y-111881252D01*
X127987276Y-111833633D01*
X128082514Y-111786014D01*
X128272991Y-111786014D01*
X128368229Y-111833633D01*
X127034895Y-114102681D02*
X127034895Y-113102681D01*
X127415848Y-113102681D01*
X127511086Y-113150300D01*
X127558705Y-113197919D01*
X127606324Y-113293157D01*
X127606324Y-113436014D01*
X127558705Y-113531252D01*
X127511086Y-113578871D01*
X127415848Y-113626490D01*
X127034895Y-113626490D01*
X128034895Y-114102681D02*
X128034895Y-113102681D01*
X128272990Y-113102681D01*
X128415848Y-113150300D01*
X128511086Y-113245538D01*
X128558705Y-113340776D01*
X128606324Y-113531252D01*
X128606324Y-113674110D01*
X128558705Y-113864586D01*
X128511086Y-113959824D01*
X128415848Y-114055062D01*
X128272990Y-114102681D01*
X128034895Y-114102681D01*
X129034895Y-114102681D02*
X129034895Y-113102681D01*
X129272990Y-114197919D02*
X130034895Y-114197919D01*
X130844419Y-114007443D02*
X130796800Y-114055062D01*
X130653943Y-114102681D01*
X130558705Y-114102681D01*
X130415847Y-114055062D01*
X130320609Y-113959824D01*
X130272990Y-113864586D01*
X130225371Y-113674110D01*
X130225371Y-113531252D01*
X130272990Y-113340776D01*
X130320609Y-113245538D01*
X130415847Y-113150300D01*
X130558705Y-113102681D01*
X130653943Y-113102681D01*
X130796800Y-113150300D01*
X130844419Y-113197919D01*
X127558705Y-114800300D02*
X127463467Y-114752681D01*
X127320610Y-114752681D01*
X127177752Y-114800300D01*
X127082514Y-114895538D01*
X127034895Y-114990776D01*
X126987276Y-115181252D01*
X126987276Y-115324110D01*
X127034895Y-115514586D01*
X127082514Y-115609824D01*
X127177752Y-115705062D01*
X127320610Y-115752681D01*
X127415848Y-115752681D01*
X127558705Y-115705062D01*
X127606324Y-115657443D01*
X127606324Y-115324110D01*
X127415848Y-115324110D01*
X128034895Y-115752681D02*
X128034895Y-114752681D01*
X128606324Y-115752681D01*
X128606324Y-114752681D01*
X129082514Y-115752681D02*
X129082514Y-114752681D01*
X129320609Y-114752681D01*
X129463467Y-114800300D01*
X129558705Y-114895538D01*
X129606324Y-114990776D01*
X129653943Y-115181252D01*
X129653943Y-115324110D01*
X129606324Y-115514586D01*
X129558705Y-115609824D01*
X129463467Y-115705062D01*
X129320609Y-115752681D01*
X129082514Y-115752681D01*
X114258624Y-105810243D02*
X114211005Y-105857862D01*
X114068148Y-105905481D01*
X113972910Y-105905481D01*
X113830052Y-105857862D01*
X113734814Y-105762624D01*
X113687195Y-105667386D01*
X113639576Y-105476910D01*
X113639576Y-105334052D01*
X113687195Y-105143576D01*
X113734814Y-105048338D01*
X113830052Y-104953100D01*
X113972910Y-104905481D01*
X114068148Y-104905481D01*
X114211005Y-104953100D01*
X114258624Y-105000719D01*
X114830052Y-105905481D02*
X114734814Y-105857862D01*
X114687195Y-105810243D01*
X114639576Y-105715005D01*
X114639576Y-105429290D01*
X114687195Y-105334052D01*
X114734814Y-105286433D01*
X114830052Y-105238814D01*
X114972910Y-105238814D01*
X115068148Y-105286433D01*
X115115767Y-105334052D01*
X115163386Y-105429290D01*
X115163386Y-105715005D01*
X115115767Y-105810243D01*
X115068148Y-105857862D01*
X114972910Y-105905481D01*
X114830052Y-105905481D01*
X115591957Y-105905481D02*
X115591957Y-105238814D01*
X115591957Y-105429290D02*
X115639576Y-105334052D01*
X115687195Y-105286433D01*
X115782433Y-105238814D01*
X115877672Y-105238814D01*
X116068148Y-105238814D02*
X116449100Y-105238814D01*
X116211005Y-104905481D02*
X116211005Y-105762624D01*
X116258624Y-105857862D01*
X116353862Y-105905481D01*
X116449100Y-105905481D01*
X117163387Y-105857862D02*
X117068149Y-105905481D01*
X116877672Y-105905481D01*
X116782434Y-105857862D01*
X116734815Y-105762624D01*
X116734815Y-105381671D01*
X116782434Y-105286433D01*
X116877672Y-105238814D01*
X117068149Y-105238814D01*
X117163387Y-105286433D01*
X117211006Y-105381671D01*
X117211006Y-105476910D01*
X116734815Y-105572148D01*
X117544339Y-105905481D02*
X118068149Y-105238814D01*
X117544339Y-105238814D02*
X118068149Y-105905481D01*
X113544338Y-106555481D02*
X113877671Y-107555481D01*
X114211005Y-106555481D01*
X115115767Y-107460243D02*
X115068148Y-107507862D01*
X114925291Y-107555481D01*
X114830053Y-107555481D01*
X114687195Y-107507862D01*
X114591957Y-107412624D01*
X114544338Y-107317386D01*
X114496719Y-107126910D01*
X114496719Y-106984052D01*
X114544338Y-106793576D01*
X114591957Y-106698338D01*
X114687195Y-106603100D01*
X114830053Y-106555481D01*
X114925291Y-106555481D01*
X115068148Y-106603100D01*
X115115767Y-106650719D01*
X116115767Y-107460243D02*
X116068148Y-107507862D01*
X115925291Y-107555481D01*
X115830053Y-107555481D01*
X115687195Y-107507862D01*
X115591957Y-107412624D01*
X115544338Y-107317386D01*
X115496719Y-107126910D01*
X115496719Y-106984052D01*
X115544338Y-106793576D01*
X115591957Y-106698338D01*
X115687195Y-106603100D01*
X115830053Y-106555481D01*
X115925291Y-106555481D01*
X116068148Y-106603100D01*
X116115767Y-106650719D01*
X113639576Y-109157862D02*
X113782433Y-109205481D01*
X114020529Y-109205481D01*
X114115767Y-109157862D01*
X114163386Y-109110243D01*
X114211005Y-109015005D01*
X114211005Y-108919767D01*
X114163386Y-108824529D01*
X114115767Y-108776910D01*
X114020529Y-108729290D01*
X113830052Y-108681671D01*
X113734814Y-108634052D01*
X113687195Y-108586433D01*
X113639576Y-108491195D01*
X113639576Y-108395957D01*
X113687195Y-108300719D01*
X113734814Y-108253100D01*
X113830052Y-108205481D01*
X114068148Y-108205481D01*
X114211005Y-108253100D01*
X114544338Y-108205481D02*
X114782433Y-109205481D01*
X114972910Y-108491195D01*
X115163386Y-109205481D01*
X115401481Y-108205481D01*
X115782433Y-109205481D02*
X115782433Y-108205481D01*
X116020528Y-108205481D01*
X116163386Y-108253100D01*
X116258624Y-108348338D01*
X116306243Y-108443576D01*
X116353862Y-108634052D01*
X116353862Y-108776910D01*
X116306243Y-108967386D01*
X116258624Y-109062624D01*
X116163386Y-109157862D01*
X116020528Y-109205481D01*
X115782433Y-109205481D01*
X116782433Y-109205481D02*
X116782433Y-108205481D01*
X117449099Y-108205481D02*
X117639576Y-108205481D01*
X117734814Y-108253100D01*
X117830052Y-108348338D01*
X117877671Y-108538814D01*
X117877671Y-108872148D01*
X117830052Y-109062624D01*
X117734814Y-109157862D01*
X117639576Y-109205481D01*
X117449099Y-109205481D01*
X117353861Y-109157862D01*
X117258623Y-109062624D01*
X117211004Y-108872148D01*
X117211004Y-108538814D01*
X117258623Y-108348338D01*
X117353861Y-108253100D01*
X117449099Y-108205481D01*
X114211005Y-109903100D02*
X114115767Y-109855481D01*
X113972910Y-109855481D01*
X113830052Y-109903100D01*
X113734814Y-109998338D01*
X113687195Y-110093576D01*
X113639576Y-110284052D01*
X113639576Y-110426910D01*
X113687195Y-110617386D01*
X113734814Y-110712624D01*
X113830052Y-110807862D01*
X113972910Y-110855481D01*
X114068148Y-110855481D01*
X114211005Y-110807862D01*
X114258624Y-110760243D01*
X114258624Y-110426910D01*
X114068148Y-110426910D01*
X114687195Y-110855481D02*
X114687195Y-109855481D01*
X115258624Y-110855481D01*
X115258624Y-109855481D01*
X115734814Y-110855481D02*
X115734814Y-109855481D01*
X115972909Y-109855481D01*
X116115767Y-109903100D01*
X116211005Y-109998338D01*
X116258624Y-110093576D01*
X116306243Y-110284052D01*
X116306243Y-110426910D01*
X116258624Y-110617386D01*
X116211005Y-110712624D01*
X116115767Y-110807862D01*
X115972909Y-110855481D01*
X115734814Y-110855481D01*
X113639576Y-112457862D02*
X113782433Y-112505481D01*
X114020529Y-112505481D01*
X114115767Y-112457862D01*
X114163386Y-112410243D01*
X114211005Y-112315005D01*
X114211005Y-112219767D01*
X114163386Y-112124529D01*
X114115767Y-112076910D01*
X114020529Y-112029290D01*
X113830052Y-111981671D01*
X113734814Y-111934052D01*
X113687195Y-111886433D01*
X113639576Y-111791195D01*
X113639576Y-111695957D01*
X113687195Y-111600719D01*
X113734814Y-111553100D01*
X113830052Y-111505481D01*
X114068148Y-111505481D01*
X114211005Y-111553100D01*
X114544338Y-111505481D02*
X114782433Y-112505481D01*
X114972910Y-111791195D01*
X115163386Y-112505481D01*
X115401481Y-111505481D01*
X115782433Y-112505481D02*
X115782433Y-111505481D01*
X116020528Y-111505481D01*
X116163386Y-111553100D01*
X116258624Y-111648338D01*
X116306243Y-111743576D01*
X116353862Y-111934052D01*
X116353862Y-112076910D01*
X116306243Y-112267386D01*
X116258624Y-112362624D01*
X116163386Y-112457862D01*
X116020528Y-112505481D01*
X115782433Y-112505481D01*
X117353862Y-112410243D02*
X117306243Y-112457862D01*
X117163386Y-112505481D01*
X117068148Y-112505481D01*
X116925290Y-112457862D01*
X116830052Y-112362624D01*
X116782433Y-112267386D01*
X116734814Y-112076910D01*
X116734814Y-111934052D01*
X116782433Y-111743576D01*
X116830052Y-111648338D01*
X116925290Y-111553100D01*
X117068148Y-111505481D01*
X117163386Y-111505481D01*
X117306243Y-111553100D01*
X117353862Y-111600719D01*
X118258624Y-112505481D02*
X117782433Y-112505481D01*
X117782433Y-111505481D01*
X118591957Y-112505481D02*
X118591957Y-111505481D01*
X119163386Y-112505481D02*
X118734814Y-111934052D01*
X119163386Y-111505481D02*
X118591957Y-112076910D01*
X114211005Y-113203100D02*
X114115767Y-113155481D01*
X113972910Y-113155481D01*
X113830052Y-113203100D01*
X113734814Y-113298338D01*
X113687195Y-113393576D01*
X113639576Y-113584052D01*
X113639576Y-113726910D01*
X113687195Y-113917386D01*
X113734814Y-114012624D01*
X113830052Y-114107862D01*
X113972910Y-114155481D01*
X114068148Y-114155481D01*
X114211005Y-114107862D01*
X114258624Y-114060243D01*
X114258624Y-113726910D01*
X114068148Y-113726910D01*
X114687195Y-114155481D02*
X114687195Y-113155481D01*
X115258624Y-114155481D01*
X115258624Y-113155481D01*
X115734814Y-114155481D02*
X115734814Y-113155481D01*
X115972909Y-113155481D01*
X116115767Y-113203100D01*
X116211005Y-113298338D01*
X116258624Y-113393576D01*
X116306243Y-113584052D01*
X116306243Y-113726910D01*
X116258624Y-113917386D01*
X116211005Y-114012624D01*
X116115767Y-114107862D01*
X115972909Y-114155481D01*
X115734814Y-114155481D01*
X113639576Y-115757862D02*
X113782433Y-115805481D01*
X114020529Y-115805481D01*
X114115767Y-115757862D01*
X114163386Y-115710243D01*
X114211005Y-115615005D01*
X114211005Y-115519767D01*
X114163386Y-115424529D01*
X114115767Y-115376910D01*
X114020529Y-115329290D01*
X113830052Y-115281671D01*
X113734814Y-115234052D01*
X113687195Y-115186433D01*
X113639576Y-115091195D01*
X113639576Y-114995957D01*
X113687195Y-114900719D01*
X113734814Y-114853100D01*
X113830052Y-114805481D01*
X114068148Y-114805481D01*
X114211005Y-114853100D01*
X114544338Y-114805481D02*
X114782433Y-115805481D01*
X114972910Y-115091195D01*
X115163386Y-115805481D01*
X115401481Y-114805481D01*
X115972909Y-114805481D02*
X116163386Y-114805481D01*
X116258624Y-114853100D01*
X116353862Y-114948338D01*
X116401481Y-115138814D01*
X116401481Y-115472148D01*
X116353862Y-115662624D01*
X116258624Y-115757862D01*
X116163386Y-115805481D01*
X115972909Y-115805481D01*
X115877671Y-115757862D01*
X115782433Y-115662624D01*
X115734814Y-115472148D01*
X115734814Y-115138814D01*
X115782433Y-114948338D01*
X115877671Y-114853100D01*
X115972909Y-114805481D01*
X113972910Y-117836433D02*
X113925290Y-117788814D01*
X113830052Y-117645957D01*
X113782433Y-117550719D01*
X113734814Y-117407862D01*
X113687195Y-117169767D01*
X113687195Y-116979290D01*
X113734814Y-116741195D01*
X113782433Y-116598338D01*
X113830052Y-116503100D01*
X113925290Y-116360243D01*
X113972910Y-116312624D01*
X114353862Y-117455481D02*
X114353862Y-116455481D01*
X114449100Y-117074529D02*
X114734815Y-117455481D01*
X114734815Y-116788814D02*
X114353862Y-117169767D01*
X115544339Y-117407862D02*
X115449101Y-117455481D01*
X115258624Y-117455481D01*
X115163386Y-117407862D01*
X115115767Y-117312624D01*
X115115767Y-116931671D01*
X115163386Y-116836433D01*
X115258624Y-116788814D01*
X115449101Y-116788814D01*
X115544339Y-116836433D01*
X115591958Y-116931671D01*
X115591958Y-117026910D01*
X115115767Y-117122148D01*
X115925291Y-116788814D02*
X116163386Y-117455481D01*
X116401482Y-116788814D02*
X116163386Y-117455481D01*
X116068148Y-117693576D01*
X116020529Y-117741195D01*
X115925291Y-117788814D01*
X116687196Y-117836433D02*
X116734815Y-117788814D01*
X116830053Y-117645957D01*
X116877672Y-117550719D01*
X116925291Y-117407862D01*
X116972910Y-117169767D01*
X116972910Y-116979290D01*
X116925291Y-116741195D01*
X116877672Y-116598338D01*
X116830053Y-116503100D01*
X116734815Y-116360243D01*
X116687196Y-116312624D01*
X113687195Y-119105481D02*
X113687195Y-118105481D01*
X114258624Y-119105481D01*
X114258624Y-118105481D01*
X115306243Y-119010243D02*
X115258624Y-119057862D01*
X115115767Y-119105481D01*
X115020529Y-119105481D01*
X114877671Y-119057862D01*
X114782433Y-118962624D01*
X114734814Y-118867386D01*
X114687195Y-118676910D01*
X114687195Y-118534052D01*
X114734814Y-118343576D01*
X114782433Y-118248338D01*
X114877671Y-118153100D01*
X115020529Y-118105481D01*
X115115767Y-118105481D01*
X115258624Y-118153100D01*
X115306243Y-118200719D01*
X113687195Y-120374529D02*
X114449100Y-120374529D01*
X114258624Y-122405481D02*
X113925290Y-121929290D01*
X113687195Y-122405481D02*
X113687195Y-121405481D01*
X114068148Y-121405481D01*
X114163386Y-121453100D01*
X114211005Y-121500719D01*
X114258624Y-121595957D01*
X114258624Y-121738814D01*
X114211005Y-121834052D01*
X114163386Y-121881671D01*
X114068148Y-121929290D01*
X113687195Y-121929290D01*
X115068148Y-122357862D02*
X114972910Y-122405481D01*
X114782433Y-122405481D01*
X114687195Y-122357862D01*
X114639576Y-122262624D01*
X114639576Y-121881671D01*
X114687195Y-121786433D01*
X114782433Y-121738814D01*
X114972910Y-121738814D01*
X115068148Y-121786433D01*
X115115767Y-121881671D01*
X115115767Y-121976910D01*
X114639576Y-122072148D01*
X115496719Y-122357862D02*
X115591957Y-122405481D01*
X115782433Y-122405481D01*
X115877672Y-122357862D01*
X115925291Y-122262624D01*
X115925291Y-122215005D01*
X115877672Y-122119767D01*
X115782433Y-122072148D01*
X115639576Y-122072148D01*
X115544338Y-122024529D01*
X115496719Y-121929290D01*
X115496719Y-121881671D01*
X115544338Y-121786433D01*
X115639576Y-121738814D01*
X115782433Y-121738814D01*
X115877672Y-121786433D01*
X116734815Y-122357862D02*
X116639577Y-122405481D01*
X116449100Y-122405481D01*
X116353862Y-122357862D01*
X116306243Y-122262624D01*
X116306243Y-121881671D01*
X116353862Y-121786433D01*
X116449100Y-121738814D01*
X116639577Y-121738814D01*
X116734815Y-121786433D01*
X116782434Y-121881671D01*
X116782434Y-121976910D01*
X116306243Y-122072148D01*
X117068148Y-121738814D02*
X117449100Y-121738814D01*
X117211005Y-121405481D02*
X117211005Y-122262624D01*
X117258624Y-122357862D01*
X117353862Y-122405481D01*
X117449100Y-122405481D01*
X121332595Y-105916181D02*
X121332595Y-104916181D01*
X121761166Y-105868562D02*
X121904023Y-105916181D01*
X122142119Y-105916181D01*
X122237357Y-105868562D01*
X122284976Y-105820943D01*
X122332595Y-105725705D01*
X122332595Y-105630467D01*
X122284976Y-105535229D01*
X122237357Y-105487610D01*
X122142119Y-105439990D01*
X121951642Y-105392371D01*
X121856404Y-105344752D01*
X121808785Y-105297133D01*
X121761166Y-105201895D01*
X121761166Y-105106657D01*
X121808785Y-105011419D01*
X121856404Y-104963800D01*
X121951642Y-104916181D01*
X122189738Y-104916181D01*
X122332595Y-104963800D01*
X122761166Y-105916181D02*
X122761166Y-104916181D01*
X123142119Y-104916181D01*
X123237357Y-104963800D01*
X123284976Y-105011419D01*
X123332595Y-105106657D01*
X123332595Y-105249514D01*
X123284976Y-105344752D01*
X123237357Y-105392371D01*
X123142119Y-105439990D01*
X122761166Y-105439990D01*
X121332595Y-107566181D02*
X121332595Y-106566181D01*
X121665929Y-107280467D01*
X121999262Y-106566181D01*
X121999262Y-107566181D01*
X122475452Y-107566181D02*
X122475452Y-106566181D01*
X122904023Y-107518562D02*
X123046880Y-107566181D01*
X123284976Y-107566181D01*
X123380214Y-107518562D01*
X123427833Y-107470943D01*
X123475452Y-107375705D01*
X123475452Y-107280467D01*
X123427833Y-107185229D01*
X123380214Y-107137610D01*
X123284976Y-107089990D01*
X123094499Y-107042371D01*
X122999261Y-106994752D01*
X122951642Y-106947133D01*
X122904023Y-106851895D01*
X122904023Y-106756657D01*
X122951642Y-106661419D01*
X122999261Y-106613800D01*
X123094499Y-106566181D01*
X123332595Y-106566181D01*
X123475452Y-106613800D01*
X124094499Y-106566181D02*
X124284976Y-106566181D01*
X124380214Y-106613800D01*
X124475452Y-106709038D01*
X124523071Y-106899514D01*
X124523071Y-107232848D01*
X124475452Y-107423324D01*
X124380214Y-107518562D01*
X124284976Y-107566181D01*
X124094499Y-107566181D01*
X123999261Y-107518562D01*
X123904023Y-107423324D01*
X123856404Y-107232848D01*
X123856404Y-106899514D01*
X123904023Y-106709038D01*
X123999261Y-106613800D01*
X124094499Y-106566181D01*
X121189738Y-108216181D02*
X121523071Y-109216181D01*
X121856405Y-108216181D01*
X122761167Y-109120943D02*
X122713548Y-109168562D01*
X122570691Y-109216181D01*
X122475453Y-109216181D01*
X122332595Y-109168562D01*
X122237357Y-109073324D01*
X122189738Y-108978086D01*
X122142119Y-108787610D01*
X122142119Y-108644752D01*
X122189738Y-108454276D01*
X122237357Y-108359038D01*
X122332595Y-108263800D01*
X122475453Y-108216181D01*
X122570691Y-108216181D01*
X122713548Y-108263800D01*
X122761167Y-108311419D01*
X123761167Y-109120943D02*
X123713548Y-109168562D01*
X123570691Y-109216181D01*
X123475453Y-109216181D01*
X123332595Y-109168562D01*
X123237357Y-109073324D01*
X123189738Y-108978086D01*
X123142119Y-108787610D01*
X123142119Y-108644752D01*
X123189738Y-108454276D01*
X123237357Y-108359038D01*
X123332595Y-108263800D01*
X123475453Y-108216181D01*
X123570691Y-108216181D01*
X123713548Y-108263800D01*
X123761167Y-108311419D01*
X121284976Y-110818562D02*
X121427833Y-110866181D01*
X121665929Y-110866181D01*
X121761167Y-110818562D01*
X121808786Y-110770943D01*
X121856405Y-110675705D01*
X121856405Y-110580467D01*
X121808786Y-110485229D01*
X121761167Y-110437610D01*
X121665929Y-110389990D01*
X121475452Y-110342371D01*
X121380214Y-110294752D01*
X121332595Y-110247133D01*
X121284976Y-110151895D01*
X121284976Y-110056657D01*
X121332595Y-109961419D01*
X121380214Y-109913800D01*
X121475452Y-109866181D01*
X121713548Y-109866181D01*
X121856405Y-109913800D01*
X122856405Y-110770943D02*
X122808786Y-110818562D01*
X122665929Y-110866181D01*
X122570691Y-110866181D01*
X122427833Y-110818562D01*
X122332595Y-110723324D01*
X122284976Y-110628086D01*
X122237357Y-110437610D01*
X122237357Y-110294752D01*
X122284976Y-110104276D01*
X122332595Y-110009038D01*
X122427833Y-109913800D01*
X122570691Y-109866181D01*
X122665929Y-109866181D01*
X122808786Y-109913800D01*
X122856405Y-109961419D01*
X123284976Y-110866181D02*
X123284976Y-109866181D01*
X123856405Y-110866181D02*
X123427833Y-110294752D01*
X123856405Y-109866181D02*
X123284976Y-110437610D01*
X121332595Y-112516181D02*
X121332595Y-111516181D01*
X121665929Y-112230467D01*
X121999262Y-111516181D01*
X121999262Y-112516181D01*
X122665928Y-111516181D02*
X122856405Y-111516181D01*
X122951643Y-111563800D01*
X123046881Y-111659038D01*
X123094500Y-111849514D01*
X123094500Y-112182848D01*
X123046881Y-112373324D01*
X122951643Y-112468562D01*
X122856405Y-112516181D01*
X122665928Y-112516181D01*
X122570690Y-112468562D01*
X122475452Y-112373324D01*
X122427833Y-112182848D01*
X122427833Y-111849514D01*
X122475452Y-111659038D01*
X122570690Y-111563800D01*
X122665928Y-111516181D01*
X123475452Y-112468562D02*
X123618309Y-112516181D01*
X123856405Y-112516181D01*
X123951643Y-112468562D01*
X123999262Y-112420943D01*
X124046881Y-112325705D01*
X124046881Y-112230467D01*
X123999262Y-112135229D01*
X123951643Y-112087610D01*
X123856405Y-112039990D01*
X123665928Y-111992371D01*
X123570690Y-111944752D01*
X123523071Y-111897133D01*
X123475452Y-111801895D01*
X123475452Y-111706657D01*
X123523071Y-111611419D01*
X123570690Y-111563800D01*
X123665928Y-111516181D01*
X123904024Y-111516181D01*
X124046881Y-111563800D01*
X124475452Y-112516181D02*
X124475452Y-111516181D01*
X121904024Y-114166181D02*
X121570690Y-113689990D01*
X121332595Y-114166181D02*
X121332595Y-113166181D01*
X121713548Y-113166181D01*
X121808786Y-113213800D01*
X121856405Y-113261419D01*
X121904024Y-113356657D01*
X121904024Y-113499514D01*
X121856405Y-113594752D01*
X121808786Y-113642371D01*
X121713548Y-113689990D01*
X121332595Y-113689990D01*
X122284976Y-114118562D02*
X122427833Y-114166181D01*
X122665929Y-114166181D01*
X122761167Y-114118562D01*
X122808786Y-114070943D01*
X122856405Y-113975705D01*
X122856405Y-113880467D01*
X122808786Y-113785229D01*
X122761167Y-113737610D01*
X122665929Y-113689990D01*
X122475452Y-113642371D01*
X122380214Y-113594752D01*
X122332595Y-113547133D01*
X122284976Y-113451895D01*
X122284976Y-113356657D01*
X122332595Y-113261419D01*
X122380214Y-113213800D01*
X122475452Y-113166181D01*
X122713548Y-113166181D01*
X122856405Y-113213800D01*
X123142119Y-113166181D02*
X123713548Y-113166181D01*
X123427833Y-114166181D02*
X123427833Y-113166181D01*
X121856405Y-114863800D02*
X121761167Y-114816181D01*
X121618310Y-114816181D01*
X121475452Y-114863800D01*
X121380214Y-114959038D01*
X121332595Y-115054276D01*
X121284976Y-115244752D01*
X121284976Y-115387610D01*
X121332595Y-115578086D01*
X121380214Y-115673324D01*
X121475452Y-115768562D01*
X121618310Y-115816181D01*
X121713548Y-115816181D01*
X121856405Y-115768562D01*
X121904024Y-115720943D01*
X121904024Y-115387610D01*
X121713548Y-115387610D01*
X122332595Y-115816181D02*
X122332595Y-114816181D01*
X122904024Y-115816181D01*
X122904024Y-114816181D01*
X123380214Y-115816181D02*
X123380214Y-114816181D01*
X123618309Y-114816181D01*
X123761167Y-114863800D01*
X123856405Y-114959038D01*
X123904024Y-115054276D01*
X123951643Y-115244752D01*
X123951643Y-115387610D01*
X123904024Y-115578086D01*
X123856405Y-115673324D01*
X123761167Y-115768562D01*
X123618309Y-115816181D01*
X123380214Y-115816181D01*
X108207110Y-104892781D02*
X108207110Y-105607067D01*
X108159490Y-105749924D01*
X108064252Y-105845162D01*
X107921395Y-105892781D01*
X107826157Y-105892781D01*
X108540443Y-104892781D02*
X109111872Y-104892781D01*
X108826157Y-105892781D02*
X108826157Y-104892781D01*
X109397586Y-105607067D02*
X109873777Y-105607067D01*
X109302348Y-105892781D02*
X109635681Y-104892781D01*
X109969015Y-105892781D01*
X110826158Y-104940400D02*
X110730920Y-104892781D01*
X110588063Y-104892781D01*
X110445205Y-104940400D01*
X110349967Y-105035638D01*
X110302348Y-105130876D01*
X110254729Y-105321352D01*
X110254729Y-105464210D01*
X110302348Y-105654686D01*
X110349967Y-105749924D01*
X110445205Y-105845162D01*
X110588063Y-105892781D01*
X110683301Y-105892781D01*
X110826158Y-105845162D01*
X110873777Y-105797543D01*
X110873777Y-105464210D01*
X110683301Y-105464210D01*
X107778538Y-106542781D02*
X108349967Y-106542781D01*
X108064252Y-107542781D02*
X108064252Y-106542781D01*
X109254729Y-107447543D02*
X109207110Y-107495162D01*
X109064253Y-107542781D01*
X108969015Y-107542781D01*
X108826157Y-107495162D01*
X108730919Y-107399924D01*
X108683300Y-107304686D01*
X108635681Y-107114210D01*
X108635681Y-106971352D01*
X108683300Y-106780876D01*
X108730919Y-106685638D01*
X108826157Y-106590400D01*
X108969015Y-106542781D01*
X109064253Y-106542781D01*
X109207110Y-106590400D01*
X109254729Y-106638019D01*
X109683300Y-107542781D02*
X109683300Y-106542781D01*
X110254729Y-107542781D02*
X109826157Y-106971352D01*
X110254729Y-106542781D02*
X109683300Y-107114210D01*
X108445205Y-108240400D02*
X108349967Y-108192781D01*
X108207110Y-108192781D01*
X108064252Y-108240400D01*
X107969014Y-108335638D01*
X107921395Y-108430876D01*
X107873776Y-108621352D01*
X107873776Y-108764210D01*
X107921395Y-108954686D01*
X107969014Y-109049924D01*
X108064252Y-109145162D01*
X108207110Y-109192781D01*
X108302348Y-109192781D01*
X108445205Y-109145162D01*
X108492824Y-109097543D01*
X108492824Y-108764210D01*
X108302348Y-108764210D01*
X108921395Y-109192781D02*
X108921395Y-108192781D01*
X109492824Y-109192781D01*
X109492824Y-108192781D01*
X109969014Y-109192781D02*
X109969014Y-108192781D01*
X110207109Y-108192781D01*
X110349967Y-108240400D01*
X110445205Y-108335638D01*
X110492824Y-108430876D01*
X110540443Y-108621352D01*
X110540443Y-108764210D01*
X110492824Y-108954686D01*
X110445205Y-109049924D01*
X110349967Y-109145162D01*
X110207109Y-109192781D01*
X109969014Y-109192781D01*
X107778538Y-109842781D02*
X108349967Y-109842781D01*
X108064252Y-110842781D02*
X108064252Y-109842781D01*
X108683300Y-110842781D02*
X108683300Y-109842781D01*
X108921395Y-109842781D01*
X109064253Y-109890400D01*
X109159491Y-109985638D01*
X109207110Y-110080876D01*
X109254729Y-110271352D01*
X109254729Y-110414210D01*
X109207110Y-110604686D01*
X109159491Y-110699924D01*
X109064253Y-110795162D01*
X108921395Y-110842781D01*
X108683300Y-110842781D01*
X109873776Y-109842781D02*
X110064253Y-109842781D01*
X110159491Y-109890400D01*
X110254729Y-109985638D01*
X110302348Y-110176114D01*
X110302348Y-110509448D01*
X110254729Y-110699924D01*
X110159491Y-110795162D01*
X110064253Y-110842781D01*
X109873776Y-110842781D01*
X109778538Y-110795162D01*
X109683300Y-110699924D01*
X109635681Y-110509448D01*
X109635681Y-110176114D01*
X109683300Y-109985638D01*
X109778538Y-109890400D01*
X109873776Y-109842781D01*
X107778538Y-111492781D02*
X108111871Y-112492781D01*
X108445205Y-111492781D01*
X108635681Y-111492781D02*
X109207110Y-111492781D01*
X108921395Y-112492781D02*
X108921395Y-111492781D01*
X109540443Y-112492781D02*
X109540443Y-111826114D01*
X109540443Y-112016590D02*
X109588062Y-111921352D01*
X109635681Y-111873733D01*
X109730919Y-111826114D01*
X109826158Y-111826114D01*
X110540444Y-112445162D02*
X110445206Y-112492781D01*
X110254729Y-112492781D01*
X110159491Y-112445162D01*
X110111872Y-112349924D01*
X110111872Y-111968971D01*
X110159491Y-111873733D01*
X110254729Y-111826114D01*
X110445206Y-111826114D01*
X110540444Y-111873733D01*
X110588063Y-111968971D01*
X110588063Y-112064210D01*
X110111872Y-112159448D01*
X110873777Y-111826114D02*
X111254729Y-111826114D01*
X111016634Y-112492781D02*
X111016634Y-111635638D01*
X111064253Y-111540400D01*
X111159491Y-111492781D01*
X111254729Y-111492781D01*
X107778538Y-113142781D02*
X108349967Y-113142781D01*
X108064252Y-114142781D02*
X108064252Y-113142781D01*
X108683300Y-114142781D02*
X108683300Y-113142781D01*
X109016634Y-113857067D01*
X109349967Y-113142781D01*
X109349967Y-114142781D01*
X109778538Y-114095162D02*
X109921395Y-114142781D01*
X110159491Y-114142781D01*
X110254729Y-114095162D01*
X110302348Y-114047543D01*
X110349967Y-113952305D01*
X110349967Y-113857067D01*
X110302348Y-113761829D01*
X110254729Y-113714210D01*
X110159491Y-113666590D01*
X109969014Y-113618971D01*
X109873776Y-113571352D01*
X109826157Y-113523733D01*
X109778538Y-113428495D01*
X109778538Y-113333257D01*
X109826157Y-113238019D01*
X109873776Y-113190400D01*
X109969014Y-113142781D01*
X110207110Y-113142781D01*
X110349967Y-113190400D01*
X107921395Y-115126114D02*
X107921395Y-115792781D01*
X107921395Y-115221352D02*
X107969014Y-115173733D01*
X108064252Y-115126114D01*
X108207110Y-115126114D01*
X108302348Y-115173733D01*
X108349967Y-115268971D01*
X108349967Y-115792781D01*
X108778538Y-115745162D02*
X108921395Y-115792781D01*
X109159491Y-115792781D01*
X109254729Y-115745162D01*
X109302348Y-115697543D01*
X109349967Y-115602305D01*
X109349967Y-115507067D01*
X109302348Y-115411829D01*
X109254729Y-115364210D01*
X109159491Y-115316590D01*
X108969014Y-115268971D01*
X108873776Y-115221352D01*
X108826157Y-115173733D01*
X108778538Y-115078495D01*
X108778538Y-114983257D01*
X108826157Y-114888019D01*
X108873776Y-114840400D01*
X108969014Y-114792781D01*
X109207110Y-114792781D01*
X109349967Y-114840400D01*
X110349967Y-115792781D02*
X110016633Y-115316590D01*
X109778538Y-115792781D02*
X109778538Y-114792781D01*
X110159491Y-114792781D01*
X110254729Y-114840400D01*
X110302348Y-114888019D01*
X110349967Y-114983257D01*
X110349967Y-115126114D01*
X110302348Y-115221352D01*
X110254729Y-115268971D01*
X110159491Y-115316590D01*
X109778538Y-115316590D01*
X110730919Y-115745162D02*
X110873776Y-115792781D01*
X111111872Y-115792781D01*
X111207110Y-115745162D01*
X111254729Y-115697543D01*
X111302348Y-115602305D01*
X111302348Y-115507067D01*
X111254729Y-115411829D01*
X111207110Y-115364210D01*
X111111872Y-115316590D01*
X110921395Y-115268971D01*
X110826157Y-115221352D01*
X110778538Y-115173733D01*
X110730919Y-115078495D01*
X110730919Y-114983257D01*
X110778538Y-114888019D01*
X110826157Y-114840400D01*
X110921395Y-114792781D01*
X111159491Y-114792781D01*
X111302348Y-114840400D01*
X111588062Y-114792781D02*
X112159491Y-114792781D01*
X111873776Y-115792781D02*
X111873776Y-114792781D01*
X107921395Y-116776114D02*
X107921395Y-117442781D01*
X107921395Y-116871352D02*
X107969014Y-116823733D01*
X108064252Y-116776114D01*
X108207110Y-116776114D01*
X108302348Y-116823733D01*
X108349967Y-116918971D01*
X108349967Y-117442781D01*
X109254729Y-117395162D02*
X109159491Y-117442781D01*
X108969014Y-117442781D01*
X108873776Y-117395162D01*
X108826157Y-117347543D01*
X108778538Y-117252305D01*
X108778538Y-116966590D01*
X108826157Y-116871352D01*
X108873776Y-116823733D01*
X108969014Y-116776114D01*
X109159491Y-116776114D01*
X109254729Y-116823733D01*
X107921395Y-118426114D02*
X107921395Y-119092781D01*
X107921395Y-118521352D02*
X107969014Y-118473733D01*
X108064252Y-118426114D01*
X108207110Y-118426114D01*
X108302348Y-118473733D01*
X108349967Y-118568971D01*
X108349967Y-119092781D01*
X108683300Y-118092781D02*
X109254729Y-118092781D01*
X108969014Y-119092781D02*
X108969014Y-118092781D01*
X110159491Y-119092781D02*
X109826157Y-118616590D01*
X109588062Y-119092781D02*
X109588062Y-118092781D01*
X109969015Y-118092781D01*
X110064253Y-118140400D01*
X110111872Y-118188019D01*
X110159491Y-118283257D01*
X110159491Y-118426114D01*
X110111872Y-118521352D01*
X110064253Y-118568971D01*
X109969015Y-118616590D01*
X109588062Y-118616590D01*
X110540443Y-119045162D02*
X110683300Y-119092781D01*
X110921396Y-119092781D01*
X111016634Y-119045162D01*
X111064253Y-118997543D01*
X111111872Y-118902305D01*
X111111872Y-118807067D01*
X111064253Y-118711829D01*
X111016634Y-118664210D01*
X110921396Y-118616590D01*
X110730919Y-118568971D01*
X110635681Y-118521352D01*
X110588062Y-118473733D01*
X110540443Y-118378495D01*
X110540443Y-118283257D01*
X110588062Y-118188019D01*
X110635681Y-118140400D01*
X110730919Y-118092781D01*
X110969015Y-118092781D01*
X111111872Y-118140400D01*
X111397586Y-118092781D02*
X111969015Y-118092781D01*
X111683300Y-119092781D02*
X111683300Y-118092781D01*
X107778538Y-119742781D02*
X108349967Y-119742781D01*
X108064252Y-120742781D02*
X108064252Y-119742781D01*
X108683300Y-120742781D02*
X108683300Y-119742781D01*
X108921395Y-119742781D01*
X109064253Y-119790400D01*
X109159491Y-119885638D01*
X109207110Y-119980876D01*
X109254729Y-120171352D01*
X109254729Y-120314210D01*
X109207110Y-120504686D01*
X109159491Y-120599924D01*
X109064253Y-120695162D01*
X108921395Y-120742781D01*
X108683300Y-120742781D01*
X109683300Y-120742781D02*
X109683300Y-119742781D01*
X108445205Y-121440400D02*
X108349967Y-121392781D01*
X108207110Y-121392781D01*
X108064252Y-121440400D01*
X107969014Y-121535638D01*
X107921395Y-121630876D01*
X107873776Y-121821352D01*
X107873776Y-121964210D01*
X107921395Y-122154686D01*
X107969014Y-122249924D01*
X108064252Y-122345162D01*
X108207110Y-122392781D01*
X108302348Y-122392781D01*
X108445205Y-122345162D01*
X108492824Y-122297543D01*
X108492824Y-121964210D01*
X108302348Y-121964210D01*
X108921395Y-122392781D02*
X108921395Y-121392781D01*
X109492824Y-122392781D01*
X109492824Y-121392781D01*
X109969014Y-122392781D02*
X109969014Y-121392781D01*
X110207109Y-121392781D01*
X110349967Y-121440400D01*
X110445205Y-121535638D01*
X110492824Y-121630876D01*
X110540443Y-121821352D01*
X110540443Y-121964210D01*
X110492824Y-122154686D01*
X110445205Y-122249924D01*
X110349967Y-122345162D01*
X110207109Y-122392781D01*
X109969014Y-122392781D01*
X106756224Y-107530581D02*
X106184795Y-107530581D01*
X106470509Y-107530581D02*
X106470509Y-106530581D01*
X106375271Y-106673438D01*
X106280033Y-106768676D01*
X106184795Y-106816295D01*
X106184795Y-108275819D02*
X106232414Y-108228200D01*
X106327652Y-108180581D01*
X106565748Y-108180581D01*
X106660986Y-108228200D01*
X106708605Y-108275819D01*
X106756224Y-108371057D01*
X106756224Y-108466295D01*
X106708605Y-108609152D01*
X106137176Y-109180581D01*
X106756224Y-109180581D01*
X106137176Y-109830581D02*
X106756224Y-109830581D01*
X106422890Y-110211533D01*
X106565748Y-110211533D01*
X106660986Y-110259152D01*
X106708605Y-110306771D01*
X106756224Y-110402010D01*
X106756224Y-110640105D01*
X106708605Y-110735343D01*
X106660986Y-110782962D01*
X106565748Y-110830581D01*
X106280033Y-110830581D01*
X106184795Y-110782962D01*
X106137176Y-110735343D01*
X106660986Y-111813914D02*
X106660986Y-112480581D01*
X106422890Y-111432962D02*
X106184795Y-112147248D01*
X106803843Y-112147248D01*
X106708605Y-113130581D02*
X106232414Y-113130581D01*
X106184795Y-113606771D01*
X106232414Y-113559152D01*
X106327652Y-113511533D01*
X106565748Y-113511533D01*
X106660986Y-113559152D01*
X106708605Y-113606771D01*
X106756224Y-113702010D01*
X106756224Y-113940105D01*
X106708605Y-114035343D01*
X106660986Y-114082962D01*
X106565748Y-114130581D01*
X106327652Y-114130581D01*
X106232414Y-114082962D01*
X106184795Y-114035343D01*
X106660986Y-114780581D02*
X106470509Y-114780581D01*
X106375271Y-114828200D01*
X106327652Y-114875819D01*
X106232414Y-115018676D01*
X106184795Y-115209152D01*
X106184795Y-115590105D01*
X106232414Y-115685343D01*
X106280033Y-115732962D01*
X106375271Y-115780581D01*
X106565748Y-115780581D01*
X106660986Y-115732962D01*
X106708605Y-115685343D01*
X106756224Y-115590105D01*
X106756224Y-115352010D01*
X106708605Y-115256771D01*
X106660986Y-115209152D01*
X106565748Y-115161533D01*
X106375271Y-115161533D01*
X106280033Y-115209152D01*
X106232414Y-115256771D01*
X106184795Y-115352010D01*
X106137176Y-116430581D02*
X106803843Y-116430581D01*
X106375271Y-117430581D01*
X106375271Y-118509152D02*
X106280033Y-118461533D01*
X106232414Y-118413914D01*
X106184795Y-118318676D01*
X106184795Y-118271057D01*
X106232414Y-118175819D01*
X106280033Y-118128200D01*
X106375271Y-118080581D01*
X106565748Y-118080581D01*
X106660986Y-118128200D01*
X106708605Y-118175819D01*
X106756224Y-118271057D01*
X106756224Y-118318676D01*
X106708605Y-118413914D01*
X106660986Y-118461533D01*
X106565748Y-118509152D01*
X106375271Y-118509152D01*
X106280033Y-118556771D01*
X106232414Y-118604390D01*
X106184795Y-118699629D01*
X106184795Y-118890105D01*
X106232414Y-118985343D01*
X106280033Y-119032962D01*
X106375271Y-119080581D01*
X106565748Y-119080581D01*
X106660986Y-119032962D01*
X106708605Y-118985343D01*
X106756224Y-118890105D01*
X106756224Y-118699629D01*
X106708605Y-118604390D01*
X106660986Y-118556771D01*
X106565748Y-118509152D01*
X106280033Y-120730581D02*
X106470509Y-120730581D01*
X106565748Y-120682962D01*
X106613367Y-120635343D01*
X106708605Y-120492486D01*
X106756224Y-120302010D01*
X106756224Y-119921057D01*
X106708605Y-119825819D01*
X106660986Y-119778200D01*
X106565748Y-119730581D01*
X106375271Y-119730581D01*
X106280033Y-119778200D01*
X106232414Y-119825819D01*
X106184795Y-119921057D01*
X106184795Y-120159152D01*
X106232414Y-120254390D01*
X106280033Y-120302010D01*
X106375271Y-120349629D01*
X106565748Y-120349629D01*
X106660986Y-120302010D01*
X106708605Y-120254390D01*
X106756224Y-120159152D01*
X105803843Y-122380581D02*
X105232414Y-122380581D01*
X105518128Y-122380581D02*
X105518128Y-121380581D01*
X105422890Y-121523438D01*
X105327652Y-121618676D01*
X105232414Y-121666295D01*
X106422890Y-121380581D02*
X106518129Y-121380581D01*
X106613367Y-121428200D01*
X106660986Y-121475819D01*
X106708605Y-121571057D01*
X106756224Y-121761533D01*
X106756224Y-121999629D01*
X106708605Y-122190105D01*
X106660986Y-122285343D01*
X106613367Y-122332962D01*
X106518129Y-122380581D01*
X106422890Y-122380581D01*
X106327652Y-122332962D01*
X106280033Y-122285343D01*
X106232414Y-122190105D01*
X106184795Y-121999629D01*
X106184795Y-121761533D01*
X106232414Y-121571057D01*
X106280033Y-121475819D01*
X106327652Y-121428200D01*
X106422890Y-121380581D01*
D12*
X152623983Y-114035874D02*
X152623983Y-112893017D01*
X153195411Y-113464446D02*
X152052554Y-113464446D01*
X151695411Y-111464445D02*
X151695411Y-112178731D01*
X152409697Y-112250160D01*
X152338269Y-112178731D01*
X152266840Y-112035874D01*
X152266840Y-111678731D01*
X152338269Y-111535874D01*
X152409697Y-111464445D01*
X152552554Y-111393017D01*
X152909697Y-111393017D01*
X153052554Y-111464445D01*
X153123983Y-111535874D01*
X153195411Y-111678731D01*
X153195411Y-112035874D01*
X153123983Y-112178731D01*
X153052554Y-112250160D01*
X151695411Y-110964446D02*
X153195411Y-110464446D01*
X151695411Y-109964446D01*
X153195411Y-108321589D02*
X152195411Y-108321589D01*
X151695411Y-108321589D02*
X151766840Y-108393018D01*
X151838269Y-108321589D01*
X151766840Y-108250161D01*
X151695411Y-108321589D01*
X151838269Y-108321589D01*
X152195411Y-107607303D02*
X153195411Y-107607303D01*
X152338269Y-107607303D02*
X152266840Y-107535875D01*
X152195411Y-107393017D01*
X152195411Y-107178732D01*
X152266840Y-107035875D01*
X152409697Y-106964446D01*
X153195411Y-106964446D01*
D11*
X136042685Y-125309762D02*
X136185542Y-125357381D01*
X136423638Y-125357381D01*
X136518876Y-125309762D01*
X136566495Y-125262143D01*
X136614114Y-125166905D01*
X136614114Y-125071667D01*
X136566495Y-124976429D01*
X136518876Y-124928810D01*
X136423638Y-124881190D01*
X136233161Y-124833571D01*
X136137923Y-124785952D01*
X136090304Y-124738333D01*
X136042685Y-124643095D01*
X136042685Y-124547857D01*
X136090304Y-124452619D01*
X136137923Y-124405000D01*
X136233161Y-124357381D01*
X136471257Y-124357381D01*
X136614114Y-124405000D01*
X137471257Y-124690714D02*
X137471257Y-125357381D01*
X137042685Y-124690714D02*
X137042685Y-125214524D01*
X137090304Y-125309762D01*
X137185542Y-125357381D01*
X137328400Y-125357381D01*
X137423638Y-125309762D01*
X137471257Y-125262143D01*
X137947447Y-124690714D02*
X137947447Y-125690714D01*
X137947447Y-124738333D02*
X138042685Y-124690714D01*
X138233162Y-124690714D01*
X138328400Y-124738333D01*
X138376019Y-124785952D01*
X138423638Y-124881190D01*
X138423638Y-125166905D01*
X138376019Y-125262143D01*
X138328400Y-125309762D01*
X138233162Y-125357381D01*
X138042685Y-125357381D01*
X137947447Y-125309762D01*
X138852209Y-124690714D02*
X138852209Y-125690714D01*
X138852209Y-124738333D02*
X138947447Y-124690714D01*
X139137924Y-124690714D01*
X139233162Y-124738333D01*
X139280781Y-124785952D01*
X139328400Y-124881190D01*
X139328400Y-125166905D01*
X139280781Y-125262143D01*
X139233162Y-125309762D01*
X139137924Y-125357381D01*
X138947447Y-125357381D01*
X138852209Y-125309762D01*
X139899828Y-125357381D02*
X139804590Y-125309762D01*
X139756971Y-125214524D01*
X139756971Y-124357381D01*
X140185543Y-124690714D02*
X140423638Y-125357381D01*
X140661734Y-124690714D02*
X140423638Y-125357381D01*
X140328400Y-125595476D01*
X140280781Y-125643095D01*
X140185543Y-125690714D01*
X137161733Y-127007381D02*
X137066495Y-126959762D01*
X137018876Y-126912143D01*
X136971257Y-126816905D01*
X136971257Y-126531190D01*
X137018876Y-126435952D01*
X137066495Y-126388333D01*
X137161733Y-126340714D01*
X137304591Y-126340714D01*
X137399829Y-126388333D01*
X137447448Y-126435952D01*
X137495067Y-126531190D01*
X137495067Y-126816905D01*
X137447448Y-126912143D01*
X137399829Y-126959762D01*
X137304591Y-127007381D01*
X137161733Y-127007381D01*
X137923638Y-126340714D02*
X137923638Y-127007381D01*
X137923638Y-126435952D02*
X137971257Y-126388333D01*
X138066495Y-126340714D01*
X138209353Y-126340714D01*
X138304591Y-126388333D01*
X138352210Y-126483571D01*
X138352210Y-127007381D01*
X138971257Y-127007381D02*
X138876019Y-126959762D01*
X138828400Y-126864524D01*
X138828400Y-126007381D01*
X139256972Y-126340714D02*
X139495067Y-127007381D01*
X139733163Y-126340714D02*
X139495067Y-127007381D01*
X139399829Y-127245476D01*
X139352210Y-127293095D01*
X139256972Y-127340714D01*
X133537581Y-105091362D02*
X133680438Y-105138981D01*
X133918534Y-105138981D01*
X134013772Y-105091362D01*
X134061391Y-105043743D01*
X134109010Y-104948505D01*
X134109010Y-104853267D01*
X134061391Y-104758029D01*
X134013772Y-104710410D01*
X133918534Y-104662790D01*
X133728057Y-104615171D01*
X133632819Y-104567552D01*
X133585200Y-104519933D01*
X133537581Y-104424695D01*
X133537581Y-104329457D01*
X133585200Y-104234219D01*
X133632819Y-104186600D01*
X133728057Y-104138981D01*
X133966153Y-104138981D01*
X134109010Y-104186600D01*
X134966153Y-105091362D02*
X134870915Y-105138981D01*
X134680438Y-105138981D01*
X134585200Y-105091362D01*
X134537581Y-105043743D01*
X134489962Y-104948505D01*
X134489962Y-104662790D01*
X134537581Y-104567552D01*
X134585200Y-104519933D01*
X134680438Y-104472314D01*
X134870915Y-104472314D01*
X134966153Y-104519933D01*
X135537581Y-105138981D02*
X135442343Y-105091362D01*
X135394724Y-105043743D01*
X135347105Y-104948505D01*
X135347105Y-104662790D01*
X135394724Y-104567552D01*
X135442343Y-104519933D01*
X135537581Y-104472314D01*
X135680439Y-104472314D01*
X135775677Y-104519933D01*
X135823296Y-104567552D01*
X135870915Y-104662790D01*
X135870915Y-104948505D01*
X135823296Y-105043743D01*
X135775677Y-105091362D01*
X135680439Y-105138981D01*
X135537581Y-105138981D01*
X136299486Y-104472314D02*
X136299486Y-105472314D01*
X136299486Y-104519933D02*
X136394724Y-104472314D01*
X136585201Y-104472314D01*
X136680439Y-104519933D01*
X136728058Y-104567552D01*
X136775677Y-104662790D01*
X136775677Y-104948505D01*
X136728058Y-105043743D01*
X136680439Y-105091362D01*
X136585201Y-105138981D01*
X136394724Y-105138981D01*
X136299486Y-105091362D01*
X137585201Y-105091362D02*
X137489963Y-105138981D01*
X137299486Y-105138981D01*
X137204248Y-105091362D01*
X137156629Y-104996124D01*
X137156629Y-104615171D01*
X137204248Y-104519933D01*
X137299486Y-104472314D01*
X137489963Y-104472314D01*
X137585201Y-104519933D01*
X137632820Y-104615171D01*
X137632820Y-104710410D01*
X137156629Y-104805648D01*
X134823296Y-105836600D02*
X134728058Y-105788981D01*
X134585201Y-105788981D01*
X134442343Y-105836600D01*
X134347105Y-105931838D01*
X134299486Y-106027076D01*
X134251867Y-106217552D01*
X134251867Y-106360410D01*
X134299486Y-106550886D01*
X134347105Y-106646124D01*
X134442343Y-106741362D01*
X134585201Y-106788981D01*
X134680439Y-106788981D01*
X134823296Y-106741362D01*
X134870915Y-106693743D01*
X134870915Y-106360410D01*
X134680439Y-106360410D01*
X135299486Y-106788981D02*
X135299486Y-105788981D01*
X135870915Y-106788981D01*
X135870915Y-105788981D01*
X136347105Y-106788981D02*
X136347105Y-105788981D01*
X136585200Y-105788981D01*
X136728058Y-105836600D01*
X136823296Y-105931838D01*
X136870915Y-106027076D01*
X136918534Y-106217552D01*
X136918534Y-106360410D01*
X136870915Y-106550886D01*
X136823296Y-106646124D01*
X136728058Y-106741362D01*
X136585200Y-106788981D01*
X136347105Y-106788981D01*
X147635981Y-109664476D02*
X147635981Y-110140667D01*
X148112171Y-110188286D01*
X148064552Y-110140667D01*
X148016933Y-110045429D01*
X148016933Y-109807333D01*
X148064552Y-109712095D01*
X148112171Y-109664476D01*
X148207410Y-109616857D01*
X148445505Y-109616857D01*
X148540743Y-109664476D01*
X148588362Y-109712095D01*
X148635981Y-109807333D01*
X148635981Y-110045429D01*
X148588362Y-110140667D01*
X148540743Y-110188286D01*
X147635981Y-109331143D02*
X148635981Y-108997810D01*
X147635981Y-108664476D01*
X145095981Y-111016895D02*
X145095981Y-110397847D01*
X145476933Y-110731181D01*
X145476933Y-110588323D01*
X145524552Y-110493085D01*
X145572171Y-110445466D01*
X145667410Y-110397847D01*
X145905505Y-110397847D01*
X146000743Y-110445466D01*
X146048362Y-110493085D01*
X146095981Y-110588323D01*
X146095981Y-110874038D01*
X146048362Y-110969276D01*
X146000743Y-111016895D01*
X145095981Y-110112133D02*
X146095981Y-109778800D01*
X145095981Y-109445466D01*
X145095981Y-109207371D02*
X145095981Y-108588323D01*
X145476933Y-108921657D01*
X145476933Y-108778799D01*
X145524552Y-108683561D01*
X145572171Y-108635942D01*
X145667410Y-108588323D01*
X145905505Y-108588323D01*
X146000743Y-108635942D01*
X146048362Y-108683561D01*
X146095981Y-108778799D01*
X146095981Y-109064514D01*
X146048362Y-109159752D01*
X146000743Y-109207371D01*
X143606781Y-110397847D02*
X143606781Y-110969276D01*
X143606781Y-110683562D02*
X142606781Y-110683562D01*
X142749638Y-110778800D01*
X142844876Y-110874038D01*
X142892495Y-110969276D01*
X142606781Y-110112133D02*
X143606781Y-109778800D01*
X142606781Y-109445466D01*
X143035352Y-108969276D02*
X142987733Y-109064514D01*
X142940114Y-109112133D01*
X142844876Y-109159752D01*
X142797257Y-109159752D01*
X142702019Y-109112133D01*
X142654400Y-109064514D01*
X142606781Y-108969276D01*
X142606781Y-108778799D01*
X142654400Y-108683561D01*
X142702019Y-108635942D01*
X142797257Y-108588323D01*
X142844876Y-108588323D01*
X142940114Y-108635942D01*
X142987733Y-108683561D01*
X143035352Y-108778799D01*
X143035352Y-108969276D01*
X143082971Y-109064514D01*
X143130590Y-109112133D01*
X143225829Y-109159752D01*
X143416305Y-109159752D01*
X143511543Y-109112133D01*
X143559162Y-109064514D01*
X143606781Y-108969276D01*
X143606781Y-108778799D01*
X143559162Y-108683561D01*
X143511543Y-108635942D01*
X143416305Y-108588323D01*
X143225829Y-108588323D01*
X143130590Y-108635942D01*
X143082971Y-108683561D01*
X143035352Y-108778799D01*
D12*
X115468500Y-81207871D02*
X115468500Y-82279300D01*
X115397072Y-82493586D01*
X115254215Y-82636443D01*
X115039929Y-82707871D01*
X114897072Y-82707871D01*
X115968500Y-81207871D02*
X116825643Y-81207871D01*
X116397072Y-82707871D02*
X116397072Y-81207871D01*
X117254214Y-82279300D02*
X117968500Y-82279300D01*
X117111357Y-82707871D02*
X117611357Y-81207871D01*
X118111357Y-82707871D01*
X119397071Y-81279300D02*
X119254214Y-81207871D01*
X119039928Y-81207871D01*
X118825643Y-81279300D01*
X118682785Y-81422157D01*
X118611357Y-81565014D01*
X118539928Y-81850729D01*
X118539928Y-82065014D01*
X118611357Y-82350729D01*
X118682785Y-82493586D01*
X118825643Y-82636443D01*
X119039928Y-82707871D01*
X119182785Y-82707871D01*
X119397071Y-82636443D01*
X119468500Y-82565014D01*
X119468500Y-82065014D01*
X119182785Y-82065014D01*
X120111357Y-82707871D02*
X120111357Y-81207871D01*
X121682786Y-82565014D02*
X121611357Y-82636443D01*
X121397071Y-82707871D01*
X121254214Y-82707871D01*
X121039929Y-82636443D01*
X120897071Y-82493586D01*
X120825643Y-82350729D01*
X120754214Y-82065014D01*
X120754214Y-81850729D01*
X120825643Y-81565014D01*
X120897071Y-81422157D01*
X121039929Y-81279300D01*
X121254214Y-81207871D01*
X121397071Y-81207871D01*
X121611357Y-81279300D01*
X121682786Y-81350729D01*
X122325643Y-81922157D02*
X122825643Y-81922157D01*
X123039929Y-82707871D02*
X122325643Y-82707871D01*
X122325643Y-81207871D01*
X123039929Y-81207871D01*
X123539929Y-81207871D02*
X124468500Y-81207871D01*
X123968500Y-81779300D01*
X124182786Y-81779300D01*
X124325643Y-81850729D01*
X124397072Y-81922157D01*
X124468500Y-82065014D01*
X124468500Y-82422157D01*
X124397072Y-82565014D01*
X124325643Y-82636443D01*
X124182786Y-82707871D01*
X123754214Y-82707871D01*
X123611357Y-82636443D01*
X123539929Y-82565014D01*
X126754214Y-81922157D02*
X126968500Y-81993586D01*
X127039928Y-82065014D01*
X127111357Y-82207871D01*
X127111357Y-82422157D01*
X127039928Y-82565014D01*
X126968500Y-82636443D01*
X126825642Y-82707871D01*
X126254214Y-82707871D01*
X126254214Y-81207871D01*
X126754214Y-81207871D01*
X126897071Y-81279300D01*
X126968500Y-81350729D01*
X127039928Y-81493586D01*
X127039928Y-81636443D01*
X126968500Y-81779300D01*
X126897071Y-81850729D01*
X126754214Y-81922157D01*
X126254214Y-81922157D01*
X127754214Y-82707871D02*
X127754214Y-81707871D01*
X127754214Y-81993586D02*
X127825642Y-81850729D01*
X127897071Y-81779300D01*
X128039928Y-81707871D01*
X128182785Y-81707871D01*
X129254213Y-82636443D02*
X129111356Y-82707871D01*
X128825642Y-82707871D01*
X128682785Y-82636443D01*
X128611356Y-82493586D01*
X128611356Y-81922157D01*
X128682785Y-81779300D01*
X128825642Y-81707871D01*
X129111356Y-81707871D01*
X129254213Y-81779300D01*
X129325642Y-81922157D01*
X129325642Y-82065014D01*
X128611356Y-82207871D01*
X130611356Y-82707871D02*
X130611356Y-81922157D01*
X130539927Y-81779300D01*
X130397070Y-81707871D01*
X130111356Y-81707871D01*
X129968499Y-81779300D01*
X130611356Y-82636443D02*
X130468499Y-82707871D01*
X130111356Y-82707871D01*
X129968499Y-82636443D01*
X129897070Y-82493586D01*
X129897070Y-82350729D01*
X129968499Y-82207871D01*
X130111356Y-82136443D01*
X130468499Y-82136443D01*
X130611356Y-82065014D01*
X131325642Y-82707871D02*
X131325642Y-81207871D01*
X131468499Y-82136443D02*
X131897070Y-82707871D01*
X131897070Y-81707871D02*
X131325642Y-82279300D01*
X132754214Y-82707871D02*
X132611356Y-82636443D01*
X132539928Y-82565014D01*
X132468499Y-82422157D01*
X132468499Y-81993586D01*
X132539928Y-81850729D01*
X132611356Y-81779300D01*
X132754214Y-81707871D01*
X132968499Y-81707871D01*
X133111356Y-81779300D01*
X133182785Y-81850729D01*
X133254214Y-81993586D01*
X133254214Y-82422157D01*
X133182785Y-82565014D01*
X133111356Y-82636443D01*
X132968499Y-82707871D01*
X132754214Y-82707871D01*
X134539928Y-81707871D02*
X134539928Y-82707871D01*
X133897071Y-81707871D02*
X133897071Y-82493586D01*
X133968499Y-82636443D01*
X134111357Y-82707871D01*
X134325642Y-82707871D01*
X134468499Y-82636443D01*
X134539928Y-82565014D01*
X135039928Y-81707871D02*
X135611357Y-81707871D01*
X135254214Y-81207871D02*
X135254214Y-82493586D01*
X135325642Y-82636443D01*
X135468500Y-82707871D01*
X135611357Y-82707871D01*
X137254214Y-82707871D02*
X137254214Y-81207871D01*
X137254214Y-81779300D02*
X137397071Y-81707871D01*
X137682785Y-81707871D01*
X137825642Y-81779300D01*
X137897071Y-81850729D01*
X137968500Y-81993586D01*
X137968500Y-82422157D01*
X137897071Y-82565014D01*
X137825642Y-82636443D01*
X137682785Y-82707871D01*
X137397071Y-82707871D01*
X137254214Y-82636443D01*
X138825643Y-82707871D02*
X138682785Y-82636443D01*
X138611357Y-82565014D01*
X138539928Y-82422157D01*
X138539928Y-81993586D01*
X138611357Y-81850729D01*
X138682785Y-81779300D01*
X138825643Y-81707871D01*
X139039928Y-81707871D01*
X139182785Y-81779300D01*
X139254214Y-81850729D01*
X139325643Y-81993586D01*
X139325643Y-82422157D01*
X139254214Y-82565014D01*
X139182785Y-82636443D01*
X139039928Y-82707871D01*
X138825643Y-82707871D01*
X140611357Y-82707871D02*
X140611357Y-81922157D01*
X140539928Y-81779300D01*
X140397071Y-81707871D01*
X140111357Y-81707871D01*
X139968500Y-81779300D01*
X140611357Y-82636443D02*
X140468500Y-82707871D01*
X140111357Y-82707871D01*
X139968500Y-82636443D01*
X139897071Y-82493586D01*
X139897071Y-82350729D01*
X139968500Y-82207871D01*
X140111357Y-82136443D01*
X140468500Y-82136443D01*
X140611357Y-82065014D01*
X141325643Y-82707871D02*
X141325643Y-81707871D01*
X141325643Y-81993586D02*
X141397071Y-81850729D01*
X141468500Y-81779300D01*
X141611357Y-81707871D01*
X141754214Y-81707871D01*
X142897071Y-82707871D02*
X142897071Y-81207871D01*
X142897071Y-82636443D02*
X142754214Y-82707871D01*
X142468500Y-82707871D01*
X142325642Y-82636443D01*
X142254214Y-82565014D01*
X142182785Y-82422157D01*
X142182785Y-81993586D01*
X142254214Y-81850729D01*
X142325642Y-81779300D01*
X142468500Y-81707871D01*
X142754214Y-81707871D01*
X142897071Y-81779300D01*
D11*
X133335781Y-98162547D02*
X134050067Y-98162547D01*
X134192924Y-98210167D01*
X134288162Y-98305405D01*
X134335781Y-98448262D01*
X134335781Y-98543500D01*
X133335781Y-97829214D02*
X133335781Y-97257785D01*
X134335781Y-97543500D02*
X133335781Y-97543500D01*
X134050067Y-96972071D02*
X134050067Y-96495880D01*
X134335781Y-97067309D02*
X133335781Y-96733976D01*
X134335781Y-96400642D01*
X133383400Y-95543499D02*
X133335781Y-95638737D01*
X133335781Y-95781594D01*
X133383400Y-95924452D01*
X133478638Y-96019690D01*
X133573876Y-96067309D01*
X133764352Y-96114928D01*
X133907210Y-96114928D01*
X134097686Y-96067309D01*
X134192924Y-96019690D01*
X134288162Y-95924452D01*
X134335781Y-95781594D01*
X134335781Y-95686356D01*
X134288162Y-95543499D01*
X134240543Y-95495880D01*
X133907210Y-95495880D01*
X133907210Y-95686356D01*
X133288162Y-93591118D02*
X134573876Y-94448261D01*
X134335781Y-92495880D02*
X133335781Y-92495880D01*
X134240543Y-91448261D02*
X134288162Y-91495880D01*
X134335781Y-91638737D01*
X134335781Y-91733975D01*
X134288162Y-91876833D01*
X134192924Y-91972071D01*
X134097686Y-92019690D01*
X133907210Y-92067309D01*
X133764352Y-92067309D01*
X133573876Y-92019690D01*
X133478638Y-91972071D01*
X133383400Y-91876833D01*
X133335781Y-91733975D01*
X133335781Y-91638737D01*
X133383400Y-91495880D01*
X133431019Y-91448261D01*
X133811971Y-91019690D02*
X133811971Y-90686356D01*
X134335781Y-90543499D02*
X134335781Y-91019690D01*
X133335781Y-91019690D01*
X133335781Y-90543499D01*
X133335781Y-90210166D02*
X133335781Y-89591118D01*
X133716733Y-89924452D01*
X133716733Y-89781594D01*
X133764352Y-89686356D01*
X133811971Y-89638737D01*
X133907210Y-89591118D01*
X134145305Y-89591118D01*
X134240543Y-89638737D01*
X134288162Y-89686356D01*
X134335781Y-89781594D01*
X134335781Y-90067309D01*
X134288162Y-90162547D01*
X134240543Y-90210166D01*
X124420667Y-121410481D02*
X124420667Y-122124767D01*
X124373047Y-122267624D01*
X124277809Y-122362862D01*
X124134952Y-122410481D01*
X124039714Y-122410481D01*
X124754000Y-121410481D02*
X125325429Y-121410481D01*
X125039714Y-122410481D02*
X125039714Y-121410481D01*
X125611143Y-122124767D02*
X126087334Y-122124767D01*
X125515905Y-122410481D02*
X125849238Y-121410481D01*
X126182572Y-122410481D01*
X127039715Y-121458100D02*
X126944477Y-121410481D01*
X126801620Y-121410481D01*
X126658762Y-121458100D01*
X126563524Y-121553338D01*
X126515905Y-121648576D01*
X126468286Y-121839052D01*
X126468286Y-121981910D01*
X126515905Y-122172386D01*
X126563524Y-122267624D01*
X126658762Y-122362862D01*
X126801620Y-122410481D01*
X126896858Y-122410481D01*
X127039715Y-122362862D01*
X127087334Y-122315243D01*
X127087334Y-121981910D01*
X126896858Y-121981910D01*
X127515905Y-122410481D02*
X127515905Y-121410481D01*
X128563524Y-122315243D02*
X128515905Y-122362862D01*
X128373048Y-122410481D01*
X128277810Y-122410481D01*
X128134952Y-122362862D01*
X128039714Y-122267624D01*
X127992095Y-122172386D01*
X127944476Y-121981910D01*
X127944476Y-121839052D01*
X127992095Y-121648576D01*
X128039714Y-121553338D01*
X128134952Y-121458100D01*
X128277810Y-121410481D01*
X128373048Y-121410481D01*
X128515905Y-121458100D01*
X128563524Y-121505719D01*
X128992095Y-121886671D02*
X129325429Y-121886671D01*
X129468286Y-122410481D02*
X128992095Y-122410481D01*
X128992095Y-121410481D01*
X129468286Y-121410481D01*
X129801619Y-121410481D02*
X130420667Y-121410481D01*
X130087333Y-121791433D01*
X130230191Y-121791433D01*
X130325429Y-121839052D01*
X130373048Y-121886671D01*
X130420667Y-121981910D01*
X130420667Y-122220005D01*
X130373048Y-122315243D01*
X130325429Y-122362862D01*
X130230191Y-122410481D01*
X129944476Y-122410481D01*
X129849238Y-122362862D01*
X129801619Y-122315243D01*
X142289685Y-88064601D02*
X141956351Y-87588410D01*
X141718256Y-88064601D02*
X141718256Y-87064601D01*
X142099209Y-87064601D01*
X142194447Y-87112220D01*
X142242066Y-87159839D01*
X142289685Y-87255077D01*
X142289685Y-87397934D01*
X142242066Y-87493172D01*
X142194447Y-87540791D01*
X142099209Y-87588410D01*
X141718256Y-87588410D01*
X143099209Y-88016982D02*
X143003971Y-88064601D01*
X142813494Y-88064601D01*
X142718256Y-88016982D01*
X142670637Y-87921744D01*
X142670637Y-87540791D01*
X142718256Y-87445553D01*
X142813494Y-87397934D01*
X143003971Y-87397934D01*
X143099209Y-87445553D01*
X143146828Y-87540791D01*
X143146828Y-87636030D01*
X142670637Y-87731268D01*
X143527780Y-88016982D02*
X143623018Y-88064601D01*
X143813494Y-88064601D01*
X143908733Y-88016982D01*
X143956352Y-87921744D01*
X143956352Y-87874125D01*
X143908733Y-87778887D01*
X143813494Y-87731268D01*
X143670637Y-87731268D01*
X143575399Y-87683649D01*
X143527780Y-87588410D01*
X143527780Y-87540791D01*
X143575399Y-87445553D01*
X143670637Y-87397934D01*
X143813494Y-87397934D01*
X143908733Y-87445553D01*
X144765876Y-88016982D02*
X144670638Y-88064601D01*
X144480161Y-88064601D01*
X144384923Y-88016982D01*
X144337304Y-87921744D01*
X144337304Y-87540791D01*
X144384923Y-87445553D01*
X144480161Y-87397934D01*
X144670638Y-87397934D01*
X144765876Y-87445553D01*
X144813495Y-87540791D01*
X144813495Y-87636030D01*
X144337304Y-87731268D01*
X145099209Y-87397934D02*
X145480161Y-87397934D01*
X145242066Y-87064601D02*
X145242066Y-87921744D01*
X145289685Y-88016982D01*
X145384923Y-88064601D01*
X145480161Y-88064601D01*
X143409943Y-96805405D02*
X143457562Y-96853024D01*
X143505181Y-96995881D01*
X143505181Y-97091119D01*
X143457562Y-97233977D01*
X143362324Y-97329215D01*
X143267086Y-97376834D01*
X143076610Y-97424453D01*
X142933752Y-97424453D01*
X142743276Y-97376834D01*
X142648038Y-97329215D01*
X142552800Y-97233977D01*
X142505181Y-97091119D01*
X142505181Y-96995881D01*
X142552800Y-96853024D01*
X142600419Y-96805405D01*
X143505181Y-96233977D02*
X143457562Y-96329215D01*
X143409943Y-96376834D01*
X143314705Y-96424453D01*
X143028990Y-96424453D01*
X142933752Y-96376834D01*
X142886133Y-96329215D01*
X142838514Y-96233977D01*
X142838514Y-96091119D01*
X142886133Y-95995881D01*
X142933752Y-95948262D01*
X143028990Y-95900643D01*
X143314705Y-95900643D01*
X143409943Y-95948262D01*
X143457562Y-95995881D01*
X143505181Y-96091119D01*
X143505181Y-96233977D01*
X143505181Y-95472072D02*
X142838514Y-95472072D01*
X143028990Y-95472072D02*
X142933752Y-95424453D01*
X142886133Y-95376834D01*
X142838514Y-95281596D01*
X142838514Y-95186357D01*
X142838514Y-94995881D02*
X142838514Y-94614929D01*
X142505181Y-94853024D02*
X143362324Y-94853024D01*
X143457562Y-94805405D01*
X143505181Y-94710167D01*
X143505181Y-94614929D01*
X143457562Y-93900642D02*
X143505181Y-93995880D01*
X143505181Y-94186357D01*
X143457562Y-94281595D01*
X143362324Y-94329214D01*
X142981371Y-94329214D01*
X142886133Y-94281595D01*
X142838514Y-94186357D01*
X142838514Y-93995880D01*
X142886133Y-93900642D01*
X142981371Y-93853023D01*
X143076610Y-93853023D01*
X143171848Y-94329214D01*
X143505181Y-93519690D02*
X142838514Y-92995880D01*
X142838514Y-93519690D02*
X143505181Y-92995880D01*
X143124229Y-92614928D02*
X143124229Y-91853023D01*
X143505181Y-91376833D02*
X142505181Y-91376833D01*
X143219467Y-91043499D01*
X142505181Y-90710166D01*
X143505181Y-90710166D01*
X120826281Y-95248266D02*
X121540567Y-95248266D01*
X121683424Y-95295886D01*
X121778662Y-95391124D01*
X121826281Y-95533981D01*
X121826281Y-95629219D01*
X120826281Y-94914933D02*
X120826281Y-94343504D01*
X121826281Y-94629219D02*
X120826281Y-94629219D01*
X121540567Y-94057790D02*
X121540567Y-93581599D01*
X121826281Y-94153028D02*
X120826281Y-93819695D01*
X121826281Y-93486361D01*
X120873900Y-92629218D02*
X120826281Y-92724456D01*
X120826281Y-92867313D01*
X120873900Y-93010171D01*
X120969138Y-93105409D01*
X121064376Y-93153028D01*
X121254852Y-93200647D01*
X121397710Y-93200647D01*
X121588186Y-93153028D01*
X121683424Y-93105409D01*
X121778662Y-93010171D01*
X121826281Y-92867313D01*
X121826281Y-92772075D01*
X121778662Y-92629218D01*
X121731043Y-92581599D01*
X121397710Y-92581599D01*
X121397710Y-92772075D01*
X108376981Y-96845095D02*
X107376981Y-96845095D01*
X108329362Y-96416524D02*
X108376981Y-96273667D01*
X108376981Y-96035571D01*
X108329362Y-95940333D01*
X108281743Y-95892714D01*
X108186505Y-95845095D01*
X108091267Y-95845095D01*
X107996029Y-95892714D01*
X107948410Y-95940333D01*
X107900790Y-96035571D01*
X107853171Y-96226048D01*
X107805552Y-96321286D01*
X107757933Y-96368905D01*
X107662695Y-96416524D01*
X107567457Y-96416524D01*
X107472219Y-96368905D01*
X107424600Y-96321286D01*
X107376981Y-96226048D01*
X107376981Y-95987952D01*
X107424600Y-95845095D01*
X108376981Y-95416524D02*
X107376981Y-95416524D01*
X107376981Y-95035571D01*
X107424600Y-94940333D01*
X107472219Y-94892714D01*
X107567457Y-94845095D01*
X107710314Y-94845095D01*
X107805552Y-94892714D01*
X107853171Y-94940333D01*
X107900790Y-95035571D01*
X107900790Y-95416524D01*
X107329362Y-93702238D02*
X108615076Y-94559381D01*
X108376981Y-93368905D02*
X107376981Y-93368905D01*
X107376981Y-92987952D01*
X107424600Y-92892714D01*
X107472219Y-92845095D01*
X107567457Y-92797476D01*
X107710314Y-92797476D01*
X107805552Y-92845095D01*
X107853171Y-92892714D01*
X107900790Y-92987952D01*
X107900790Y-93368905D01*
X108376981Y-92368905D02*
X107376981Y-92368905D01*
X107376981Y-92130810D01*
X107424600Y-91987952D01*
X107519838Y-91892714D01*
X107615076Y-91845095D01*
X107805552Y-91797476D01*
X107948410Y-91797476D01*
X108138886Y-91845095D01*
X108234124Y-91892714D01*
X108329362Y-91987952D01*
X108376981Y-92130810D01*
X108376981Y-92368905D01*
X108376981Y-91368905D02*
X107376981Y-91368905D01*
D13*
X141486274Y-85140800D02*
G75*
G03X141486274Y-85140800I-1750714J0D01*
G01*
X136510560Y-83390800D02*
X142960560Y-83390800D01*
X136510560Y-86890800D02*
X142960560Y-86890800D01*
X137421240Y-88594560D02*
X136421240Y-88594560D01*
X136421240Y-87244560D02*
X137421240Y-87244560D01*
D14*
X118441200Y-102056200D02*
X118441200Y-86056200D01*
X109041200Y-86056200D02*
X109041200Y-102056200D01*
X109041200Y-102056200D02*
X118441200Y-102056200D01*
X109041200Y-86056200D02*
X118441200Y-86056200D01*
D15*
X118441200Y-91756200D02*
X117041200Y-91756200D01*
X117041200Y-91756200D02*
X117041200Y-96356200D01*
X117041200Y-96356200D02*
X118441200Y-96356200D01*
D14*
X131827000Y-104456200D02*
X131827000Y-83656200D01*
X122427000Y-83656200D02*
X122427000Y-104456200D01*
X122427000Y-104456200D02*
X131827000Y-104456200D01*
X122427000Y-83656200D02*
X131827000Y-83656200D01*
D15*
X131827000Y-91756200D02*
X130427000Y-91756200D01*
X130427000Y-91756200D02*
X130427000Y-96356200D01*
X130427000Y-96356200D02*
X131827000Y-96356200D01*
D13*
X128962000Y-127349000D02*
X128962000Y-127849000D01*
X126562000Y-127349000D02*
X126562000Y-127849000D01*
X126562000Y-127349000D02*
X128962000Y-127349000D01*
X122707000Y-122799000D02*
X132817000Y-122799000D01*
X132817000Y-122799000D02*
X132817000Y-127899000D01*
X132817000Y-127899000D02*
X122707000Y-127899000D01*
X122707000Y-127899000D02*
X122707000Y-122799000D01*
X148431000Y-92856200D02*
X148931000Y-92856200D01*
X148431000Y-95256200D02*
X148931000Y-95256200D01*
X148431000Y-95256200D02*
X148431000Y-92856200D01*
X143881000Y-99111200D02*
X143881000Y-89001200D01*
X143881000Y-89001200D02*
X148981000Y-89001200D01*
X148981000Y-89001200D02*
X148981000Y-99111200D01*
X148981000Y-99111200D02*
X143881000Y-99111200D01*
X139363200Y-92856200D02*
X139863200Y-92856200D01*
X139363200Y-95256200D02*
X139863200Y-95256200D01*
X139363200Y-95256200D02*
X139363200Y-92856200D01*
X134813200Y-99111200D02*
X134813200Y-89001200D01*
X134813200Y-89001200D02*
X139913200Y-89001200D01*
X139913200Y-89001200D02*
X139913200Y-99111200D01*
X139913200Y-99111200D02*
X134813200Y-99111200D01*
X137817700Y-128460500D02*
X137817700Y-123210500D01*
X137817700Y-123210500D02*
X145417700Y-123210500D01*
X145417700Y-123210500D02*
X145417700Y-128460500D01*
X137817700Y-128460500D02*
X145417700Y-128460500D01*
X149545600Y-119385600D02*
X149545600Y-120085600D01*
X148345600Y-120085600D02*
X148345600Y-119385600D01*
X149418600Y-113899200D02*
X149418600Y-114599200D01*
X148218600Y-114599200D02*
X148218600Y-113899200D01*
X139188900Y-119704600D02*
X139188900Y-119004600D01*
X140388900Y-119004600D02*
X140388900Y-119704600D01*
X144266920Y-107711240D02*
X149346920Y-107711240D01*
X141446920Y-107991240D02*
X141446920Y-106441240D01*
X141726920Y-105171240D02*
X144266920Y-105171240D01*
X144266920Y-105171240D02*
X144266920Y-107711240D01*
X149346920Y-107711240D02*
X149346920Y-102631240D01*
X149346920Y-102631240D02*
X144266920Y-102631240D01*
X141446920Y-107991240D02*
X142996920Y-107991240D01*
X141726920Y-102631240D02*
X141726920Y-105171240D01*
X144266920Y-102631240D02*
X141726920Y-102631240D01*
X152791160Y-117990620D02*
X152791160Y-120530620D01*
X153071160Y-115170620D02*
X153071160Y-116720620D01*
X152791160Y-117990620D02*
X150251160Y-117990620D01*
X149971160Y-116720620D02*
X149971160Y-115170620D01*
X149971160Y-115170620D02*
X153071160Y-115170620D01*
X150251160Y-117990620D02*
X150251160Y-120530620D01*
X150251160Y-120530620D02*
X152791160Y-120530620D01*
X137160600Y-107682700D02*
X137160600Y-109232700D01*
X134060600Y-109232700D02*
X134060600Y-107682700D01*
X134060600Y-107682700D02*
X137160600Y-107682700D01*
X134340600Y-110502700D02*
X136880600Y-110502700D01*
X131826000Y-118524000D02*
X131826000Y-121572000D01*
X131826000Y-121572000D02*
X138938000Y-121572000D01*
X138938000Y-121572000D02*
X138938000Y-118524000D01*
X131826000Y-115476000D02*
X131826000Y-114714000D01*
X131826000Y-114714000D02*
X133350000Y-112428000D01*
X133350000Y-112428000D02*
X137414000Y-112428000D01*
X137414000Y-112428000D02*
X138938000Y-114714000D01*
X138938000Y-114714000D02*
X138938000Y-115476000D01*
X140817600Y-118524000D02*
X140817600Y-121572000D01*
X140817600Y-121572000D02*
X147929600Y-121572000D01*
X147929600Y-121572000D02*
X147929600Y-118524000D01*
X140817600Y-115476000D02*
X140817600Y-114714000D01*
X140817600Y-114714000D02*
X142341600Y-112428000D01*
X142341600Y-112428000D02*
X146405600Y-112428000D01*
X146405600Y-112428000D02*
X147929600Y-114714000D01*
X147929600Y-114714000D02*
X147929600Y-115476000D01*
X140291300Y-112271100D02*
X139591300Y-112271100D01*
X139591300Y-111071100D02*
X140291300Y-111071100D01*
X136754574Y-86471941D02*
X136421240Y-85995750D01*
X136183145Y-86471941D02*
X136183145Y-85471941D01*
X136564098Y-85471941D01*
X136659336Y-85519560D01*
X136706955Y-85567179D01*
X136754574Y-85662417D01*
X136754574Y-85805274D01*
X136706955Y-85900512D01*
X136659336Y-85948131D01*
X136564098Y-85995750D01*
X136183145Y-85995750D01*
X137706955Y-86471941D02*
X137135526Y-86471941D01*
X137421240Y-86471941D02*
X137421240Y-85471941D01*
X137326002Y-85614798D01*
X137230764Y-85710036D01*
X137135526Y-85757655D01*
X149404343Y-116955866D02*
X149451962Y-117003485D01*
X149499581Y-117146342D01*
X149499581Y-117241580D01*
X149451962Y-117384438D01*
X149356724Y-117479676D01*
X149261486Y-117527295D01*
X149071010Y-117574914D01*
X148928152Y-117574914D01*
X148737676Y-117527295D01*
X148642438Y-117479676D01*
X148547200Y-117384438D01*
X148499581Y-117241580D01*
X148499581Y-117146342D01*
X148547200Y-117003485D01*
X148594819Y-116955866D01*
X149499581Y-116003485D02*
X149499581Y-116574914D01*
X149499581Y-116289200D02*
X148499581Y-116289200D01*
X148642438Y-116384438D01*
X148737676Y-116479676D01*
X148785295Y-116574914D01*
X150597574Y-113605583D02*
X150549955Y-113653202D01*
X150407098Y-113700821D01*
X150311860Y-113700821D01*
X150169002Y-113653202D01*
X150073764Y-113557964D01*
X150026145Y-113462726D01*
X149978526Y-113272250D01*
X149978526Y-113129392D01*
X150026145Y-112938916D01*
X150073764Y-112843678D01*
X150169002Y-112748440D01*
X150311860Y-112700821D01*
X150407098Y-112700821D01*
X150549955Y-112748440D01*
X150597574Y-112796059D01*
X150978526Y-112796059D02*
X151026145Y-112748440D01*
X151121383Y-112700821D01*
X151359479Y-112700821D01*
X151454717Y-112748440D01*
X151502336Y-112796059D01*
X151549955Y-112891297D01*
X151549955Y-112986535D01*
X151502336Y-113129392D01*
X150930907Y-113700821D01*
X151549955Y-113700821D01*
X141466843Y-119267266D02*
X141514462Y-119314885D01*
X141562081Y-119457742D01*
X141562081Y-119552980D01*
X141514462Y-119695838D01*
X141419224Y-119791076D01*
X141323986Y-119838695D01*
X141133510Y-119886314D01*
X140990652Y-119886314D01*
X140800176Y-119838695D01*
X140704938Y-119791076D01*
X140609700Y-119695838D01*
X140562081Y-119552980D01*
X140562081Y-119457742D01*
X140609700Y-119314885D01*
X140657319Y-119267266D01*
X140562081Y-118933933D02*
X140562081Y-118314885D01*
X140943033Y-118648219D01*
X140943033Y-118505361D01*
X140990652Y-118410123D01*
X141038271Y-118362504D01*
X141133510Y-118314885D01*
X141371605Y-118314885D01*
X141466843Y-118362504D01*
X141514462Y-118410123D01*
X141562081Y-118505361D01*
X141562081Y-118791076D01*
X141514462Y-118886314D01*
X141466843Y-118933933D01*
X134620095Y-115690381D02*
X134620095Y-116499905D01*
X134667714Y-116595143D01*
X134715333Y-116642762D01*
X134810571Y-116690381D01*
X135001048Y-116690381D01*
X135096286Y-116642762D01*
X135143905Y-116595143D01*
X135191524Y-116499905D01*
X135191524Y-115690381D01*
X135620095Y-115785619D02*
X135667714Y-115738000D01*
X135762952Y-115690381D01*
X136001048Y-115690381D01*
X136096286Y-115738000D01*
X136143905Y-115785619D01*
X136191524Y-115880857D01*
X136191524Y-115976095D01*
X136143905Y-116118952D01*
X135572476Y-116690381D01*
X136191524Y-116690381D01*
X143611695Y-115741181D02*
X143611695Y-116550705D01*
X143659314Y-116645943D01*
X143706933Y-116693562D01*
X143802171Y-116741181D01*
X143992648Y-116741181D01*
X144087886Y-116693562D01*
X144135505Y-116645943D01*
X144183124Y-116550705D01*
X144183124Y-115741181D01*
X145183124Y-116741181D02*
X144611695Y-116741181D01*
X144897409Y-116741181D02*
X144897409Y-115741181D01*
X144802171Y-115884038D01*
X144706933Y-115979276D01*
X144611695Y-116026895D01*
X139774634Y-113928243D02*
X139727015Y-113975862D01*
X139584158Y-114023481D01*
X139488920Y-114023481D01*
X139346062Y-113975862D01*
X139250824Y-113880624D01*
X139203205Y-113785386D01*
X139155586Y-113594910D01*
X139155586Y-113452052D01*
X139203205Y-113261576D01*
X139250824Y-113166338D01*
X139346062Y-113071100D01*
X139488920Y-113023481D01*
X139584158Y-113023481D01*
X139727015Y-113071100D01*
X139774634Y-113118719D01*
X140631777Y-113356814D02*
X140631777Y-114023481D01*
X140393681Y-112975862D02*
X140155586Y-113690148D01*
X140774634Y-113690148D01*
M02*
