G04 #@! TF.FileFunction,Copper,L2,Bot,Signal*
%FSLAX46Y46*%
G04 Gerber Fmt 4.6, Leading zero omitted, Abs format (unit mm)*
G04 Created by KiCad (PCBNEW (2015-05-09 BZR 5648)-product) date fre 07 aug 2015 21:35:44 CEST*
%MOMM*%
G01*
G04 APERTURE LIST*
%ADD10C,0.100000*%
%ADD11C,0.381000*%
%ADD12R,2.000000X1.500000*%
%ADD13O,2.000000X1.500000*%
%ADD14C,1.000000*%
%ADD15O,1.050000X1.850000*%
%ADD16R,1.727200X1.727200*%
%ADD17O,1.727200X1.727200*%
%ADD18R,2.032000X2.032000*%
%ADD19O,2.032000X2.032000*%
%ADD20R,2.235200X2.235200*%
%ADD21C,0.600000*%
%ADD22C,0.254000*%
%ADD23C,0.508000*%
G04 APERTURE END LIST*
D10*
D11*
X113990120Y-103662480D02*
X119890540Y-109562900D01*
X119590820Y-108262420D02*
X119090440Y-107762040D01*
X114990880Y-106662220D02*
X115290600Y-106961940D01*
X116989860Y-109661960D02*
X116791740Y-109461300D01*
X117990620Y-104663240D02*
X117789960Y-104462580D01*
X118491000Y-105161080D02*
X118889780Y-105562400D01*
X117490240Y-105161080D02*
X117190520Y-104861360D01*
X116489480Y-105161080D02*
X115991640Y-104663240D01*
X114490500Y-103162100D02*
X114289840Y-102961440D01*
X113990120Y-103662480D02*
X113690400Y-103362760D01*
X113990120Y-104663240D02*
X113489740Y-104162860D01*
X112491520Y-105161080D02*
X112389920Y-105062020D01*
X113489740Y-105161080D02*
X113090960Y-104762300D01*
X110990380Y-104663240D02*
X110690660Y-104360980D01*
X110490000Y-105161080D02*
X110190280Y-104861360D01*
X118491000Y-110162340D02*
X118790720Y-110462060D01*
X116989860Y-108661200D02*
X116690140Y-108361480D01*
X119090440Y-112661700D02*
X119291100Y-112862360D01*
X116989860Y-110662720D02*
X116489480Y-110162340D01*
X118491000Y-113162080D02*
X118691660Y-113362740D01*
X116489480Y-111163100D02*
X115991640Y-110662720D01*
X116489480Y-112161320D02*
X116090700Y-111762540D01*
X110990380Y-107662980D02*
X110490000Y-107162600D01*
X110490000Y-108160820D02*
X110190280Y-107861100D01*
X110990380Y-111660940D02*
X110591600Y-111262160D01*
X108991400Y-108661200D02*
X108590080Y-108262420D01*
X110490000Y-112161320D02*
X111490760Y-113162080D01*
X110990380Y-111660940D02*
X111991140Y-112661700D01*
X108991400Y-108661200D02*
X112989360Y-112661700D01*
X109489240Y-108160820D02*
X112989360Y-111660940D01*
X110490000Y-108160820D02*
X113489740Y-111163100D01*
X116489480Y-112161320D02*
X116989860Y-112661700D01*
X116489480Y-111163100D02*
X118491000Y-113162080D01*
X116989860Y-110662720D02*
X118991380Y-112661700D01*
X116989860Y-109661960D02*
X118491000Y-111163100D01*
X116989860Y-108661200D02*
X118491000Y-110162340D01*
X114490500Y-103162100D02*
X115491260Y-104162860D01*
X117990620Y-104663240D02*
X118491000Y-105161080D01*
X117490240Y-105161080D02*
X118491000Y-106161840D01*
X119491760Y-108160820D02*
X120489980Y-109161580D01*
X116489480Y-105161080D02*
X118991380Y-107662980D01*
X113990120Y-104663240D02*
X118991380Y-109661960D01*
X110990380Y-107662980D02*
X112491520Y-109161580D01*
X110990380Y-106662220D02*
X112491520Y-108160820D01*
X113489740Y-105161080D02*
X114990880Y-106662220D01*
X110490000Y-105161080D02*
X112989360Y-107662980D01*
X110990380Y-104663240D02*
X113489740Y-107162600D01*
X112491520Y-105161080D02*
X113990120Y-106662220D01*
X109689900Y-116961920D02*
X109689900Y-117561360D01*
X111191040Y-115862100D02*
X110390940Y-119161560D01*
X110390940Y-119161560D02*
X110190280Y-119161560D01*
X110190280Y-119161560D02*
X109791500Y-117762020D01*
X109791500Y-117762020D02*
X109689900Y-117762020D01*
X109689900Y-117762020D02*
X109189520Y-119161560D01*
X109189520Y-119161560D02*
X109090460Y-119161560D01*
X109090460Y-119161560D02*
X108290360Y-115961160D01*
X108290360Y-115961160D02*
X108491020Y-115961160D01*
X108491020Y-115961160D02*
X109189520Y-118562120D01*
X109189520Y-118562120D02*
X109590840Y-116761260D01*
X109590840Y-116761260D02*
X109791500Y-116761260D01*
X109791500Y-116761260D02*
X110390940Y-118562120D01*
X110390940Y-118562120D02*
X110990380Y-115862100D01*
X110990380Y-115862100D02*
X111191040Y-115862100D01*
X113891060Y-117363240D02*
X112389920Y-117363240D01*
X112389920Y-117363240D02*
X112389920Y-117561360D01*
X112389920Y-117561360D02*
X113789460Y-117561360D01*
X112290860Y-115961160D02*
X112290860Y-119161560D01*
X112290860Y-119161560D02*
X112090200Y-119161560D01*
X112090200Y-119161560D02*
X112090200Y-115961160D01*
X112090200Y-115961160D02*
X112290860Y-115961160D01*
X113789460Y-115862100D02*
X113891060Y-115862100D01*
X113990120Y-115862100D02*
X113990120Y-119161560D01*
X113990120Y-119161560D02*
X113789460Y-119161560D01*
X113789460Y-119161560D02*
X113789460Y-115862100D01*
X114889280Y-116161820D02*
X114990880Y-116062760D01*
X114990880Y-116062760D02*
X115389660Y-115961160D01*
X115389660Y-115961160D02*
X115890040Y-115862100D01*
X115890040Y-115862100D02*
X116591080Y-116062760D01*
X116591080Y-116062760D02*
X116890800Y-116362480D01*
X116890800Y-116362480D02*
X116989860Y-116862860D01*
X116989860Y-116862860D02*
X116890800Y-117261640D01*
X116890800Y-117261640D02*
X116489480Y-117561360D01*
X116489480Y-117561360D02*
X115991640Y-117762020D01*
X115991640Y-117762020D02*
X115590320Y-117861080D01*
X115590320Y-117861080D02*
X115389660Y-118061740D01*
X115389660Y-118061740D02*
X115290600Y-118361460D01*
X115290600Y-118361460D02*
X115389660Y-118661180D01*
X115389660Y-118661180D02*
X115689380Y-118861840D01*
X115689380Y-118861840D02*
X116090700Y-118861840D01*
X116090700Y-118861840D02*
X116591080Y-118861840D01*
X116591080Y-118861840D02*
X116890800Y-118762780D01*
X116890800Y-118762780D02*
X117091460Y-118861840D01*
X117091460Y-118861840D02*
X116791740Y-119062500D01*
X116791740Y-119062500D02*
X116189760Y-119161560D01*
X116189760Y-119161560D02*
X115590320Y-119161560D01*
X115590320Y-119161560D02*
X115191540Y-118861840D01*
X115191540Y-118861840D02*
X115089940Y-118361460D01*
X115089940Y-118361460D02*
X115089940Y-118061740D01*
X115089940Y-118061740D02*
X115290600Y-117762020D01*
X115290600Y-117762020D02*
X115790980Y-117561360D01*
X115790980Y-117561360D02*
X116291360Y-117363240D01*
X116291360Y-117363240D02*
X116690140Y-117060980D01*
X116690140Y-117060980D02*
X116791740Y-116761260D01*
X116791740Y-116761260D02*
X116591080Y-116461540D01*
X116591080Y-116461540D02*
X116189760Y-116161820D01*
X116189760Y-116161820D02*
X115590320Y-116161820D01*
X115590320Y-116161820D02*
X115191540Y-116260880D01*
X115191540Y-116260880D02*
X114889280Y-116362480D01*
X118991380Y-116260880D02*
X119291100Y-116260880D01*
X119291100Y-116260880D02*
X119689880Y-116563140D01*
X119689880Y-116563140D02*
X119791480Y-117060980D01*
X119791480Y-117060980D02*
X119791480Y-117861080D01*
X119791480Y-117861080D02*
X119689880Y-118361460D01*
X119689880Y-118361460D02*
X119491760Y-118661180D01*
X119491760Y-118661180D02*
X119090440Y-118861840D01*
X119090440Y-118861840D02*
X118691660Y-118861840D01*
X118691660Y-118861840D02*
X118290340Y-118562120D01*
X118290340Y-118562120D02*
X118089680Y-117861080D01*
X118089680Y-117861080D02*
X118089680Y-117060980D01*
X118089680Y-117060980D02*
X118290340Y-116662200D01*
X118290340Y-116662200D02*
X118491000Y-116461540D01*
X118491000Y-116461540D02*
X118889780Y-116260880D01*
X118991380Y-115961160D02*
X119390160Y-116062760D01*
X119390160Y-116062760D02*
X119689880Y-116161820D01*
X119689880Y-116161820D02*
X119989600Y-116662200D01*
X119989600Y-116662200D02*
X120091200Y-117261640D01*
X120091200Y-117261640D02*
X119989600Y-118361460D01*
X119989600Y-118361460D02*
X119689880Y-118960900D01*
X119689880Y-118960900D02*
X119090440Y-119161560D01*
X119090440Y-119161560D02*
X118389400Y-119062500D01*
X118389400Y-119062500D02*
X117990620Y-118463060D01*
X117990620Y-118463060D02*
X117891560Y-117762020D01*
X117891560Y-117762020D02*
X117891560Y-117060980D01*
X117891560Y-117060980D02*
X118089680Y-116461540D01*
X118089680Y-116461540D02*
X118491000Y-116062760D01*
X118491000Y-116062760D02*
X118991380Y-115961160D01*
X115590320Y-110863380D02*
X116090700Y-110462060D01*
X116090700Y-110462060D02*
X116489480Y-109961680D01*
X116489480Y-109961680D02*
X116690140Y-109461300D01*
X116690140Y-109461300D02*
X116690140Y-108762800D01*
X116690140Y-108762800D02*
X116588540Y-108163360D01*
X116588540Y-108163360D02*
X116189760Y-107561380D01*
X116189760Y-107561380D02*
X115389660Y-106961940D01*
X115389660Y-106961940D02*
X114589560Y-106862880D01*
X114589560Y-106862880D02*
X113888520Y-106862880D01*
X113888520Y-106862880D02*
X113190020Y-107363260D01*
X113190020Y-107363260D02*
X112689640Y-108061760D01*
X112689640Y-108061760D02*
X112488980Y-108661200D01*
X112488980Y-108661200D02*
X112488980Y-109362240D01*
X112488980Y-109362240D02*
X112788700Y-110162340D01*
X112788700Y-110162340D02*
X113289080Y-110662720D01*
X113289080Y-110662720D02*
X113588800Y-110863380D01*
X113588800Y-110962440D02*
X112839500Y-113212880D01*
X112839500Y-113212880D02*
X111988600Y-112763300D01*
X111988600Y-112763300D02*
X110690660Y-113761520D01*
X110690660Y-113761520D02*
X109689900Y-112661700D01*
X109689900Y-112661700D02*
X110589060Y-111361220D01*
X110589060Y-111361220D02*
X110088680Y-110063280D01*
X110088680Y-110063280D02*
X110088680Y-109862620D01*
X110088680Y-109862620D02*
X108488480Y-109562900D01*
X108488480Y-109562900D02*
X108488480Y-108061760D01*
X108488480Y-108061760D02*
X110088680Y-107863640D01*
X110088680Y-107863640D02*
X110690660Y-106461560D01*
X110690660Y-106461560D02*
X109788960Y-105062020D01*
X109788960Y-105062020D02*
X110888780Y-104061260D01*
X110888780Y-104061260D02*
X112189260Y-104962960D01*
X112189260Y-104962960D02*
X113390680Y-104462580D01*
X113390680Y-104462580D02*
X113789460Y-102862380D01*
X113789460Y-102862380D02*
X115290600Y-102862380D01*
X115290600Y-102862380D02*
X115590320Y-104462580D01*
X115590320Y-104462580D02*
X116890800Y-104962960D01*
X116890800Y-104962960D02*
X118290340Y-103962200D01*
X118290340Y-103962200D02*
X119390160Y-105062020D01*
X119390160Y-105062020D02*
X118389400Y-106362500D01*
X118389400Y-106362500D02*
X119090440Y-107863640D01*
X119090440Y-107863640D02*
X120690640Y-108061760D01*
X120690640Y-108061760D02*
X120789700Y-109461300D01*
X120789700Y-109461300D02*
X119189500Y-109763560D01*
X119189500Y-109763560D02*
X118590060Y-111361220D01*
X118590060Y-111361220D02*
X119489220Y-112661700D01*
X119489220Y-112661700D02*
X118488460Y-113761520D01*
X118488460Y-113761520D02*
X117190520Y-112862360D01*
X117190520Y-112862360D02*
X116489480Y-113162080D01*
X116489480Y-113162080D02*
X115590320Y-110863380D01*
D12*
X115261200Y-96596200D03*
D13*
X112221200Y-96596200D03*
X115261200Y-94056200D03*
X112221200Y-94056200D03*
X115261200Y-91516200D03*
X112221200Y-91516200D03*
X128647000Y-88976200D03*
X125607000Y-88976200D03*
X125607000Y-91516200D03*
X128647000Y-91516200D03*
D12*
X128647000Y-99136200D03*
D13*
X125607000Y-99136200D03*
X128647000Y-96596200D03*
X125607000Y-96596200D03*
X128647000Y-94056200D03*
X125607000Y-94056200D03*
D14*
X125222000Y-124714000D03*
X125222000Y-125984000D03*
X126492000Y-124714000D03*
X126492000Y-125984000D03*
X127762000Y-124714000D03*
X127762000Y-125984000D03*
X129032000Y-124714000D03*
X129032000Y-125984000D03*
X130302000Y-124714000D03*
X130302000Y-125984000D03*
X145796000Y-96596200D03*
X147066000Y-96596200D03*
X145796000Y-95326200D03*
X147066000Y-95326200D03*
X145796000Y-94056200D03*
X147066000Y-94056200D03*
X145796000Y-92786200D03*
X147066000Y-92786200D03*
X145796000Y-91516200D03*
X147066000Y-91516200D03*
X136728200Y-96596200D03*
X137998200Y-96596200D03*
X136728200Y-95326200D03*
X137998200Y-95326200D03*
X136728200Y-94056200D03*
X137998200Y-94056200D03*
X136728200Y-92786200D03*
X137998200Y-92786200D03*
X136728200Y-91516200D03*
X137998200Y-91516200D03*
D15*
X138042700Y-127310500D03*
X145192700Y-127310500D03*
X138042700Y-123860500D03*
X145192700Y-123860500D03*
D16*
X142996920Y-106441240D03*
D17*
X142996920Y-103901240D03*
X145536920Y-106441240D03*
X145536920Y-103901240D03*
X148076920Y-106441240D03*
X148076920Y-103901240D03*
D18*
X151521160Y-116720620D03*
D19*
X151521160Y-119260620D03*
D20*
X135610600Y-109232700D03*
D21*
X117236240Y-94493080D03*
X138931847Y-97745747D03*
X139049760Y-92755720D03*
X141208760Y-96342200D03*
X139415520Y-87939880D03*
X135144970Y-93869970D03*
X123962160Y-102326440D03*
X123096751Y-94056200D03*
X137452100Y-98280510D03*
X130475010Y-98280510D03*
X139958042Y-99431878D03*
X130086100Y-88150700D03*
X140551806Y-97964808D03*
X124690328Y-102018764D03*
X140309600Y-123073160D03*
D22*
X139115800Y-95719900D02*
X138722100Y-95326200D01*
X138722100Y-95326200D02*
X137998200Y-95326200D01*
X139115800Y-95719900D02*
X139123420Y-95719900D01*
X139123420Y-95719900D02*
X140792200Y-94051120D01*
X140797280Y-94056200D02*
X145796000Y-94056200D01*
X140792200Y-94051120D02*
X140797280Y-94056200D01*
X128397000Y-97600200D02*
X128085280Y-97911920D01*
X128397000Y-96596200D02*
X128397000Y-97600200D01*
X120655080Y-97911920D02*
X117236240Y-94493080D01*
X128085280Y-97911920D02*
X120655080Y-97911920D01*
X139115800Y-96688502D02*
X139115800Y-95719900D01*
X136585098Y-97663000D02*
X138141302Y-97663000D01*
X138141302Y-97663000D02*
X139115800Y-96688502D01*
X135518298Y-96596200D02*
X136585098Y-97663000D01*
X128397000Y-96596200D02*
X135518298Y-96596200D01*
X126431902Y-125984000D02*
X126492000Y-125984000D01*
X125614401Y-126801501D02*
X126431902Y-125984000D01*
X124829599Y-126801501D02*
X125614401Y-126801501D01*
X122260360Y-124232262D02*
X124829599Y-126801501D01*
X122260360Y-104849360D02*
X122260360Y-124232262D01*
X115011200Y-97600200D02*
X122260360Y-104849360D01*
X115011200Y-96596200D02*
X115011200Y-97600200D01*
D23*
X136021094Y-95326200D02*
X136728200Y-95326200D01*
X127727708Y-95326200D02*
X136021094Y-95326200D01*
X126457708Y-96596200D02*
X127727708Y-95326200D01*
X125857000Y-96596200D02*
X126457708Y-96596200D01*
X112221200Y-96596200D02*
X109352080Y-93727080D01*
X112471200Y-96596200D02*
X112221200Y-96596200D01*
X109352080Y-93727080D02*
X109352080Y-90556080D01*
X109352080Y-90556080D02*
X113898680Y-86009480D01*
X113898680Y-86009480D02*
X144693640Y-86009480D01*
X144693640Y-86009480D02*
X148828760Y-90144600D01*
X147773106Y-96596200D02*
X147066000Y-96596200D01*
X148828760Y-95540546D02*
X147773106Y-96596200D01*
X148828760Y-90144600D02*
X148828760Y-95540546D01*
X142996920Y-103901240D02*
X145536920Y-103901240D01*
X148076920Y-103901240D02*
X145536920Y-103901240D01*
X147066000Y-96596200D02*
X147066000Y-101315520D01*
X148076920Y-102326440D02*
X148076920Y-103901240D01*
X147066000Y-101315520D02*
X148076920Y-102326440D01*
D22*
X115011200Y-94056200D02*
X115261200Y-94056200D01*
X137541394Y-99136200D02*
X138931847Y-97745747D01*
X128397000Y-99136200D02*
X137541394Y-99136200D01*
X118899086Y-97694086D02*
X118899086Y-97702786D01*
X115261200Y-94056200D02*
X118899086Y-97694086D01*
X118899086Y-97702786D02*
X121691400Y-100495100D01*
X128147000Y-99136200D02*
X128397000Y-99136200D01*
X126788100Y-100495100D02*
X128147000Y-99136200D01*
X141351394Y-95326200D02*
X145796000Y-95326200D01*
X138931847Y-97745747D02*
X141351394Y-95326200D01*
X123195080Y-123957080D02*
X123195080Y-100551369D01*
X125222000Y-125984000D02*
X123195080Y-123957080D01*
X123195080Y-100551369D02*
X123251349Y-100495100D01*
X123251349Y-100495100D02*
X126788100Y-100495100D01*
X121691400Y-100495100D02*
X123251349Y-100495100D01*
X128147000Y-88976200D02*
X128397000Y-88976200D01*
X110604300Y-90766900D02*
X114274600Y-87096600D01*
X112221200Y-94056200D02*
X110604300Y-92439300D01*
X126267400Y-87096600D02*
X128147000Y-88976200D01*
X114274600Y-87096600D02*
X126267400Y-87096600D01*
X110604300Y-92439300D02*
X110604300Y-90766900D01*
X112471200Y-94056200D02*
X112221200Y-94056200D01*
X135458200Y-88976200D02*
X137998200Y-91516200D01*
X128397000Y-88976200D02*
X135458200Y-88976200D01*
X145765520Y-92755720D02*
X145796000Y-92786200D01*
X139049760Y-92755720D02*
X145765520Y-92755720D01*
X137627360Y-99923600D02*
X141208760Y-96342200D01*
X137627360Y-118658640D02*
X137627360Y-99923600D01*
X130302000Y-125984000D02*
X137627360Y-118658640D01*
X116265200Y-91516200D02*
X118805200Y-94056200D01*
X115011200Y-91516200D02*
X116265200Y-91516200D01*
X135331200Y-94056200D02*
X136728200Y-94056200D01*
X127174510Y-92988690D02*
X134263690Y-92988690D01*
X126107000Y-94056200D02*
X127174510Y-92988690D01*
X125857000Y-94056200D02*
X126107000Y-94056200D01*
X142991840Y-91516200D02*
X139415520Y-87939880D01*
X145796000Y-91516200D02*
X142991840Y-91516200D01*
X135144970Y-93869970D02*
X135331200Y-94056200D01*
X134263690Y-92988690D02*
X135144970Y-93869970D01*
X127762000Y-106126280D02*
X123962160Y-102326440D01*
X127762000Y-124714000D02*
X127762000Y-106126280D01*
X123118880Y-94078329D02*
X123096751Y-94056200D01*
X123096751Y-94056200D02*
X125857000Y-94056200D01*
X118805200Y-94056200D02*
X123096751Y-94056200D01*
X130475010Y-98280510D02*
X137452100Y-98280510D01*
X142793720Y-96596200D02*
X145796000Y-96596200D01*
X139958042Y-99431878D02*
X142793720Y-96596200D01*
X138885210Y-100504710D02*
X139958042Y-99431878D01*
X138885210Y-119289061D02*
X138885210Y-100504710D01*
X130732311Y-127441960D02*
X138885210Y-119289061D01*
X129219960Y-127441960D02*
X130732311Y-127441960D01*
X127762000Y-125984000D02*
X129219960Y-127441960D01*
X135842602Y-88150700D02*
X130086100Y-88150700D01*
X138815701Y-91123799D02*
X135842602Y-88150700D01*
X138815701Y-91968699D02*
X138815701Y-91123799D01*
X137998200Y-92786200D02*
X138815701Y-91968699D01*
X138358880Y-100157734D02*
X140251807Y-98264807D01*
X138358880Y-119137022D02*
X138358880Y-100157734D01*
X140251807Y-98264807D02*
X140551806Y-97964808D01*
X130694401Y-126801501D02*
X138358880Y-119137022D01*
X129849501Y-126801501D02*
X130694401Y-126801501D01*
X129032000Y-125984000D02*
X129849501Y-126801501D01*
X134390690Y-90448690D02*
X136228201Y-92286201D01*
X127704823Y-90448690D02*
X134390690Y-90448690D01*
X136228201Y-92286201D02*
X136728200Y-92786200D01*
X126637313Y-91516200D02*
X127704823Y-90448690D01*
X125857000Y-91516200D02*
X126637313Y-91516200D01*
X129032000Y-106360436D02*
X124690328Y-102018764D01*
X129032000Y-124714000D02*
X129032000Y-106360436D01*
D23*
X146662140Y-116720620D02*
X151521160Y-116720620D01*
X140309600Y-123073160D02*
X146662140Y-116720620D01*
X146662140Y-107856020D02*
X148076920Y-106441240D01*
X146662140Y-116720620D02*
X146662140Y-107856020D01*
M02*
