G04 #@! TF.FileFunction,Soldermask,Bot*
%FSLAX46Y46*%
G04 Gerber Fmt 4.6, Leading zero omitted, Abs format (unit mm)*
G04 Created by KiCad (PCBNEW (2015-05-09 BZR 5648)-product) date fre 07 aug 2015 21:35:44 CEST*
%MOMM*%
G01*
G04 APERTURE LIST*
%ADD10C,0.100000*%
%ADD11R,2.000000X1.500000*%
%ADD12O,2.000000X1.500000*%
%ADD13C,1.000000*%
%ADD14O,1.050000X1.850000*%
%ADD15C,0.650000*%
%ADD16R,1.727200X1.727200*%
%ADD17O,1.727200X1.727200*%
%ADD18R,2.032000X2.032000*%
%ADD19O,2.032000X2.032000*%
%ADD20R,2.235200X2.235200*%
G04 APERTURE END LIST*
D10*
D11*
X115261200Y-96596200D03*
D12*
X112221200Y-96596200D03*
X115261200Y-94056200D03*
X112221200Y-94056200D03*
X115261200Y-91516200D03*
X112221200Y-91516200D03*
X128647000Y-88976200D03*
X125607000Y-88976200D03*
X125607000Y-91516200D03*
X128647000Y-91516200D03*
D11*
X128647000Y-99136200D03*
D12*
X125607000Y-99136200D03*
X128647000Y-96596200D03*
X125607000Y-96596200D03*
X128647000Y-94056200D03*
X125607000Y-94056200D03*
D13*
X125222000Y-124714000D03*
X125222000Y-125984000D03*
X126492000Y-124714000D03*
X126492000Y-125984000D03*
X127762000Y-124714000D03*
X127762000Y-125984000D03*
X129032000Y-124714000D03*
X129032000Y-125984000D03*
X130302000Y-124714000D03*
X130302000Y-125984000D03*
X145796000Y-96596200D03*
X147066000Y-96596200D03*
X145796000Y-95326200D03*
X147066000Y-95326200D03*
X145796000Y-94056200D03*
X147066000Y-94056200D03*
X145796000Y-92786200D03*
X147066000Y-92786200D03*
X145796000Y-91516200D03*
X147066000Y-91516200D03*
X136728200Y-96596200D03*
X137998200Y-96596200D03*
X136728200Y-95326200D03*
X137998200Y-95326200D03*
X136728200Y-94056200D03*
X137998200Y-94056200D03*
X136728200Y-92786200D03*
X137998200Y-92786200D03*
X136728200Y-91516200D03*
X137998200Y-91516200D03*
D14*
X138042700Y-127310500D03*
X145192700Y-127310500D03*
X138042700Y-123860500D03*
X145192700Y-123860500D03*
D15*
X139617700Y-125185500D03*
X143617700Y-125185500D03*
D16*
X142996920Y-106441240D03*
D17*
X142996920Y-103901240D03*
X145536920Y-106441240D03*
X145536920Y-103901240D03*
X148076920Y-106441240D03*
X148076920Y-103901240D03*
D18*
X151521160Y-116720620D03*
D19*
X151521160Y-119260620D03*
D20*
X135610600Y-109232700D03*
M02*
