M48
;DRILL file {KiCad (2015-05-09 BZR 5648)-product} date tor 06 aug 2015 20:11:01 CEST
;FORMAT={-:-/ absolute / inch / decimal}
FMAT,2
INCH,TZ
T1C0.016
T2C0.018
T3C0.026
T4C0.028
T5C0.039
T6C0.040
%
G90
G05
M72
T1
X4.462Y-3.692
X4.528Y-4.06
X4.7157Y-3.9974
X4.788Y-4.17
X4.7908Y-3.9052
X4.9342Y-3.8899
X4.98Y-3.9103
X5.0154Y-3.5434
X5.066Y-4.174
X5.07Y-3.67
X5.136Y-3.676
X5.17Y-4.17
X5.176Y-3.638
X5.2022Y-3.6555
X5.2078Y-3.5242
X5.2483Y-3.6873
X5.2907Y-4.172
T3
X5.6573Y-4.9251
X5.8147Y-4.9251
T4
X4.292Y-4.032
X4.292Y-4.082
X4.342Y-4.032
X4.342Y-4.082
X4.392Y-4.032
X4.392Y-4.082
X4.442Y-4.032
X4.442Y-4.082
X4.492Y-4.032
X4.492Y-4.082
X4.93Y-3.58
X4.93Y-3.63
X4.93Y-4.91
X4.93Y-4.96
X4.98Y-3.58
X4.98Y-3.63
X4.98Y-4.91
X4.98Y-4.96
X5.03Y-3.58
X5.03Y-3.63
X5.03Y-4.91
X5.03Y-4.96
X5.08Y-3.58
X5.08Y-3.63
X5.08Y-4.91
X5.08Y-4.96
X5.13Y-3.58
X5.13Y-3.63
X5.13Y-4.91
X5.13Y-4.96
T5
X4.314Y-3.39
X4.314Y-3.49
X4.314Y-3.59
X4.414Y-3.39
X4.414Y-3.49
X4.414Y-3.59
X4.866Y-3.996
X4.866Y-4.096
X4.966Y-3.996
X4.966Y-4.096
X5.066Y-3.996
X5.066Y-4.096
X5.166Y-3.996
X5.166Y-4.096
X5.266Y-3.996
X5.266Y-4.096
X5.75Y-3.39
X5.75Y-3.49
X5.75Y-3.59
X5.85Y-3.39
X5.85Y-3.49
X5.85Y-3.59
T6
X5.514Y-3.238
X5.696Y-4.186
X5.696Y-4.286
X5.796Y-4.186
X5.796Y-4.286
X5.896Y-4.186
X5.896Y-4.286
X5.97Y-4.55
X5.97Y-4.65
T2
X5.5953Y-4.8571G85X5.5953Y-4.8886
G05
X5.5953Y-4.993G85X5.5953Y-5.0245
G05
X5.8767Y-4.8571G85X5.8767Y-4.8886
G05
X5.8767Y-4.993G85X5.8767Y-5.0245
G05
T0
M30
